<?xml version="1.0" encoding="UTF-8"?>
<svg xmlns="http://www.w3.org/2000/svg" width="50.8mm" height="50.8mm" viewBox="-25.4000 -25.4000 50.8000 50.8000">
  <title>Kingdom tag 1: Generic rat</title>
  <path id="tag" fill="#000" fill-rule="evenodd" d="M-10.4000,-10.4000 -10.4000,10.4000 10.4000,10.4000 10.4000,-10.4000Z M-7.8000,-7.8000 -2.6000,-7.8000 -2.6000,-2.6000 0.0000,-2.6000 0.0000,-7.8000 5.2000,-7.8000 5.2000,-5.2000 7.8000,-5.2000 7.8000,-2.6000 2.6000,-2.6000 2.6000,-0.0000 0.0000,-0.0000 0.0000,2.6000 2.6000,2.6000 2.6000,5.2000 0.0000,5.2000 0.0000,7.8000 -2.6000,7.8000 -2.6000,2.6000 -5.2000,2.6000 -5.2000,5.2000 -7.8000,5.2000 -7.8000,2.6000 -5.2000,2.6000 -5.2000,-0.0000 -7.8000,-0.0000 -7.8000,-2.6000 -5.2000,-2.6000 -5.2000,-5.2000 -7.8000,-5.2000Z M5.2000,2.6000 7.8000,2.6000 7.8000,7.8000 5.2000,7.8000Z"/>
  <path id="text" fill="#000" fill-rule="evenodd" d="M-10.0693,-17.2357 -10.1036,-17.2161 -10.1380,-17.1978 -10.1726,-17.1807 -10.2073,-17.1647 -10.2422,-17.1499 -10.2773,-17.1363 -10.3126,-17.1239 -10.3480,-17.1127 -10.3836,-17.1026 -10.4193,-17.0937 -10.4553,-17.0861 -10.4913,-17.0796 -10.5276,-17.0743 -10.5669,-17.0698 -10.6060,-17.0666 -10.6451,-17.0647 -10.6840,-17.0640 -10.7227,-17.0647 -10.7614,-17.0665 -10.7999,-17.0697 -10.8382,-17.0742 -10.8764,-17.0799 -10.9145,-17.0869 -10.9525,-17.0951 -10.9903,-17.1046 -11.0279,-17.1154 -11.0649,-17.1274 -11.1015,-17.1406 -11.1377,-17.1549 -11.1734,-17.1705 -11.2086,-17.1873 -11.2434,-17.2053 -11.2777,-17.2245 -11.3116,-17.2449 -11.3450,-17.2665 -11.3779,-17.2894 -11.4104,-17.3134 -11.4399,-17.3366 -11.4686,-17.3608 -11.4967,-17.3860 -11.5240,-17.4121 -11.5507,-17.4393 -11.5767,-17.4674 -11.6021,-17.4965 -11.6267,-17.5265 -11.6507,-17.5576 -11.6739,-17.5896 -11.6965,-17.6226 -11.7184,-17.6566 -11.7396,-17.6915 -11.7599,-17.7270 -11.7791,-17.7627 -11.7971,-17.7984 -11.8139,-17.8343 -11.8297,-17.8703 -11.8442,-17.9064 -11.8577,-17.9426 -11.8699,-17.9790 -11.8811,-18.0155 -11.8911,-18.0521 -11.8999,-18.0888 -11.9076,-18.1256 -11.9142,-18.1626 -11.9200,-18.2026 -11.9245,-18.2424 -11.9277,-18.2820 -11.9295,-18.3214 -11.9301,-18.3605 -11.9293,-18.3995 -11.9272,-18.4382 -11.9238,-18.4767 -11.9191,-18.5151 -11.9131,-18.5532 -11.9057,-18.5911 -11.8970,-18.6288 -11.8871,-18.6661 -11.8760,-18.7030 -11.8636,-18.7393 -11.8501,-18.7752 -11.8354,-18.8106 -11.8195,-18.8455 -11.8024,-18.8799 -11.7840,-18.9138 -11.7645,-18.9472 -11.7438,-18.9801 -11.7219,-19.0126 -11.6988,-19.0445 -11.6765,-19.0735 -11.6532,-19.1017 -11.6289,-19.1292 -11.6038,-19.1560 -11.5776,-19.1821 -11.5506,-19.2075 -11.5225,-19.2322 -11.4936,-19.2562 -11.4637,-19.2795 -11.4328,-19.3020 -11.4010,-19.3239 -11.3682,-19.3451 -11.3346,-19.3656 -11.3004,-19.3851 -11.2663,-19.4034 -11.2321,-19.4205 -11.1980,-19.4364 -11.1640,-19.4511 -11.1299,-19.4645 -11.0959,-19.4768 -11.0619,-19.4879 -11.0279,-19.4977 -10.9939,-19.5064 -10.9599,-19.5139 -10.9260,-19.5201 -10.8921,-19.5251 -10.8522,-19.5297 -10.8128,-19.5330 -10.7737,-19.5349 -10.7351,-19.5355 -10.6970,-19.5347 -10.6592,-19.5327 -10.6219,-19.5293 -10.5850,-19.5245 -10.5485,-19.5185 -10.5124,-19.5111 -10.4768,-19.5024 -10.4384,-19.4914 -10.4010,-19.4791 -10.3648,-19.4656 -10.3297,-19.4508 -10.2958,-19.4346 -10.2629,-19.4172 -10.2311,-19.3985 -10.2005,-19.3785 -10.1710,-19.3572 -10.1425,-19.3347 -10.3836,-18.9759 -10.4147,-19.0001 -10.4466,-19.0222 -10.4795,-19.0421 -10.5132,-19.0599 -10.5479,-19.0755 -10.5834,-19.0889 -10.6198,-19.1001 -10.6571,-19.1092 -10.6953,-19.1161 -10.7344,-19.1208 -10.7703,-19.1230 -10.8063,-19.1229 -10.8423,-19.1206 -10.8784,-19.1161 -10.9145,-19.1093 -10.9506,-19.1002 -10.9868,-19.0889 -11.0230,-19.0754 -11.0593,-19.0596 -11.0956,-19.0416 -11.1319,-19.0213 -11.1664,-19.0000 -11.1992,-18.9776 -11.2305,-18.9541 -11.2600,-18.9296 -11.2879,-18.9040 -11.3142,-18.8773 -11.3388,-18.8495 -11.3618,-18.8207 -11.3831,-18.7908 -11.4028,-18.7599 -11.4208,-18.7279 -11.4371,-18.6951 -11.4516,-18.6617 -11.4644,-18.6279 -11.4754,-18.5936 -11.4846,-18.5588 -11.4920,-18.5235 -11.4976,-18.4878 -11.5015,-18.4515 -11.5036,-18.4147 -11.5039,-18.3774 -11.5025,-18.3396 -11.4995,-18.3047 -11.4950,-18.2696 -11.4889,-18.2345 -11.4811,-18.1993 -11.4718,-18.1640 -11.4609,-18.1285 -11.4484,-18.0930 -11.4343,-18.0574 -11.4187,-18.0216 -11.4014,-17.9858 -11.3825,-17.9499 -11.3621,-17.9138 -11.3405,-17.8784 -11.3181,-17.8445 -11.2950,-17.8120 -11.2712,-17.7810 -11.2467,-17.7514 -11.2214,-17.7233 -11.1954,-17.6966 -11.1686,-17.6713 -11.1411,-17.6475 -11.1129,-17.6251 -11.0840,-17.6042 -11.0543,-17.5847 -11.0213,-17.5652 -10.9880,-17.5474 -10.9542,-17.5315 -10.9201,-17.5173 -10.8855,-17.5050 -10.8506,-17.4944 -10.8153,-17.4857 -10.7796,-17.4788 -10.7435,-17.4737 -10.7070,-17.4704 -10.6702,-17.4688 -10.6332,-17.4692 -10.5964,-17.4715 -10.5597,-17.4758 -10.5232,-17.4820 -10.4868,-17.4901 -10.4506,-17.5002 -10.4146,-17.5123 -10.3787,-17.5263 -10.3430,-17.5422 -10.3074,-17.5601 -10.2720,-17.5799 -10.2376,-17.6012 -10.2047,-17.6237 -10.1734,-17.6473 -10.1435,-17.6721 -10.1152,-17.6982 -10.0885,-17.7253 -10.0632,-17.7537 -10.0395,-17.7833 -10.0173,-17.8140 -9.9969,-17.8456 -9.9786,-17.8777 -9.9623,-17.9103 -9.9481,-17.9435 -9.9360,-17.9772 -9.9259,-18.0115 -9.9179,-18.0463 -9.9120,-18.0816 -9.9081,-18.1175 -9.9066,-18.1536 -9.9077,-18.1896 -9.9115,-18.2254 -9.9178,-18.2612 -9.9267,-18.2968 -9.9383,-18.3324 -9.9525,-18.3678 -9.9692,-18.4031 -9.9886,-18.4383 -9.9935,-18.4467 -10.5876,-18.0969 -10.7756,-18.4161 -9.8040,-18.9882 -9.6814,-18.7800 -9.6604,-18.7433 -9.6408,-18.7067 -9.6225,-18.6702 -9.6056,-18.6338 -9.5900,-18.5976 -9.5757,-18.5614 -9.5628,-18.5252 -9.5512,-18.4892 -9.5410,-18.4533 -9.5321,-18.4175 -9.5245,-18.3818 -9.5183,-18.3462 -9.5134,-18.3106 -9.5095,-18.2724 -9.5069,-18.2345 -9.5055,-18.1970 -9.5054,-18.1598 -9.5066,-18.1230 -9.5091,-18.0866 -9.5128,-18.0505 -9.5179,-18.0148 -9.5242,-17.9794 -9.5317,-17.9445 -9.5406,-17.9098 -9.5507,-17.8756 -9.5631,-17.8387 -9.5766,-17.8026 -9.5913,-17.7671 -9.6071,-17.7323 -9.6241,-17.6981 -9.6423,-17.6646 -9.6617,-17.6318 -9.6822,-17.5997 -9.7039,-17.5682 -9.7267,-17.5375 -9.7508,-17.5073 -9.7758,-17.4780 -9.8016,-17.4496 -9.8282,-17.4222 -9.8555,-17.3956 -9.8837,-17.3700 -9.9127,-17.3453 -9.9424,-17.3215 -9.9730,-17.2987 -10.0043,-17.2767 -10.0364,-17.2557Z M-8.5518,-18.0941 -9.4978,-20.2998 -8.0300,-20.9293 -7.8776,-20.5740 -8.9420,-20.1175 -8.6989,-19.5506 -7.6937,-19.9816 -7.5413,-19.6263 -8.5465,-19.1953 -8.3008,-18.6224 -7.2364,-19.0788 -7.0841,-18.7235Z M-6.5182,-18.9325 -7.1895,-21.2366 -6.8617,-21.3322 -5.3330,-20.1737 -5.7637,-21.6521 -5.3431,-21.7747 -4.6717,-19.4705 -5.0027,-19.3741 -6.5364,-20.5613 -6.0975,-19.0550Z M-3.9431,-19.6210 -4.3300,-21.9896 -2.7538,-22.2471 -2.6915,-21.8655 -3.8345,-21.6788 -3.7350,-21.0700 -2.6556,-21.2463 -2.5933,-20.8648 -3.6727,-20.6885 -3.5722,-20.0733 -2.4292,-20.2600 -2.3669,-19.8785Z M-1.7671,-19.9392 -1.8793,-22.3366 -0.9879,-22.3783 -0.9475,-22.3796 -0.9079,-22.3796 -0.8689,-22.3783 -0.8307,-22.3758 -0.7932,-22.3720 -0.7564,-22.3669 -0.7204,-22.3606 -0.6850,-22.3530 -0.6504,-22.3442 -0.6165,-22.3341 -0.5834,-22.3227 -0.5510,-22.3101 -0.5166,-22.2949 -0.4836,-22.2783 -0.4518,-22.2603 -0.4214,-22.2410 -0.3922,-22.2202 -0.3644,-22.1980 -0.3378,-22.1745 -0.3125,-22.1496 -0.2886,-22.1232 -0.2659,-22.0955 -0.2445,-22.0664 -0.2262,-22.0385 -0.2093,-22.0096 -0.1938,-21.9796 -0.1798,-21.9485 -0.1672,-21.9163 -0.1561,-21.8831 -0.1463,-21.8488 -0.1380,-21.8134 -0.1311,-21.7769 -0.1257,-21.7394 -0.1217,-21.7008 -0.1191,-21.6611 -0.1180,-21.6203 -0.1186,-21.5804 -0.1208,-21.5415 -0.1248,-21.5035 -0.1304,-21.4665 -0.1377,-21.4304 -0.1467,-21.3953 -0.1574,-21.3612 -0.1697,-21.3279 -0.1837,-21.2957 -0.1994,-21.2644 -0.2168,-21.2340 -0.2374,-21.2021 -0.2594,-21.1717 -0.2828,-21.1427 -0.3077,-21.1151 -0.3340,-21.0889 -0.3617,-21.0641 -0.3909,-21.0408 -0.4214,-21.0189 -0.4534,-20.9984 -0.4869,-20.9794 -0.5217,-20.9618 0.0736,-20.0253 -0.4220,-20.0021 -0.9590,-20.8639 -1.3709,-20.8446 -1.3294,-19.9597Z M-1.3889,-21.2308 -0.9288,-21.2523 -0.8900,-21.2554 -0.8532,-21.2610 -0.8183,-21.2692 -0.7853,-21.2798 -0.7542,-21.2929 -0.7250,-21.3086 -0.6927,-21.3303 -0.6637,-21.3548 -0.6379,-21.3821 -0.6153,-21.4123 -0.5959,-21.4453 -0.5825,-21.4746 -0.5719,-21.5051 -0.5640,-21.5371 -0.5588,-21.5703 -0.5564,-21.6048 -0.5567,-21.6406 -0.5598,-21.6772 -0.5654,-21.7120 -0.5737,-21.7450 -0.5846,-21.7762 -0.5980,-21.8055 -0.6141,-21.8330 -0.6364,-21.8635 -0.6617,-21.8909 -0.6899,-21.9154 -0.7211,-21.9369 -0.7553,-21.9554 -0.7858,-21.9683 -0.8180,-21.9785 -0.8518,-21.9860 -0.8874,-21.9908 -0.9246,-21.9930 -0.9634,-21.9924 -1.4236,-21.9709Z M0.6394,-19.9910 0.7424,-22.3888 1.1809,-22.3699 1.0779,-19.9721Z M2.9313,-19.7453 2.8925,-19.7514 2.8543,-19.7585 2.8166,-19.7666 2.7796,-19.7758 2.7432,-19.7860 2.7074,-19.7972 2.6722,-19.8095 2.6376,-19.8228 2.6036,-19.8371 2.5702,-19.8524 2.5374,-19.8687 2.5052,-19.8861 2.4736,-19.9045 2.4402,-19.9255 2.4077,-19.9473 2.3761,-19.9701 2.3455,-19.9938 2.3157,-20.0184 2.2869,-20.0438 2.2590,-20.0702 2.2320,-20.0976 2.2059,-20.1258 2.1808,-20.1549 2.1566,-20.1849 2.1333,-20.2159 2.1110,-20.2476 2.0898,-20.2800 2.0697,-20.3130 2.0507,-20.3467 2.0328,-20.3811 2.0160,-20.4161 2.0003,-20.4518 1.9857,-20.4882 1.9723,-20.5252 1.9599,-20.5629 1.9486,-20.6013 1.9384,-20.6403 1.9301,-20.6768 1.9229,-20.7136 1.9168,-20.7508 1.9119,-20.7883 1.9081,-20.8262 1.9054,-20.8644 1.9038,-20.9030 1.9034,-20.9419 1.9042,-20.9812 1.9060,-21.0208 1.9090,-21.0608 1.9132,-21.1011 1.9184,-21.1418 1.9247,-21.1823 1.9320,-21.2222 1.9403,-21.2615 1.9496,-21.3001 1.9598,-21.3381 1.9710,-21.3754 1.9832,-21.4122 1.9963,-21.4482 2.0105,-21.4837 2.0256,-21.5185 2.0417,-21.5527 2.0588,-21.5862 2.0768,-21.6191 2.0974,-21.6539 2.1188,-21.6878 2.1411,-21.7206 2.1643,-21.7525 2.1883,-21.7835 2.2133,-21.8134 2.2391,-21.8424 2.2658,-21.8704 2.2934,-21.8974 2.3219,-21.9235 2.3513,-21.9485 2.3815,-21.9726 2.4125,-21.9957 2.4441,-22.0176 2.4764,-22.0384 2.5093,-22.0580 2.5428,-22.0766 2.5770,-22.0939 2.6118,-22.1102 2.6472,-22.1253 2.6832,-22.1393 2.7199,-22.1521 2.7572,-22.1638 2.7951,-22.1744 2.8305,-22.1830 2.8663,-22.1905 2.9024,-22.1969 2.9389,-22.2021 2.9756,-22.2062 3.0127,-22.2092 3.0501,-22.2110 3.0878,-22.2116 3.1258,-22.2111 3.1642,-22.2095 3.2029,-22.2067 3.2419,-22.2028 3.2812,-22.1977 3.3232,-22.1911 3.3642,-22.1835 3.4044,-22.1747 3.4437,-22.1648 3.4821,-22.1538 3.5196,-22.1418 3.5562,-22.1286 3.5919,-22.1144 3.6267,-22.0990 3.6606,-22.0826 3.6937,-22.0651 3.7258,-22.0464 3.7598,-22.0251 3.7927,-22.0031 3.8244,-21.9802 3.8549,-21.9566 3.8843,-21.9323 3.9126,-21.9071 3.9397,-21.8812 3.9656,-21.8545 3.9904,-21.8271 4.0141,-21.7988 4.0366,-21.7698 4.0598,-21.7374 4.0814,-21.7046 4.1012,-21.6714 4.1194,-21.6380 4.1359,-21.6042 4.1507,-21.5702 4.1637,-21.5358 4.1751,-21.5011 4.1848,-21.4660 4.1928,-21.4307 3.7790,-21.3018 3.7696,-21.3394 3.7582,-21.3760 3.7448,-21.4116 3.7293,-21.4461 3.7118,-21.4796 3.6924,-21.5120 3.6708,-21.5435 3.6473,-21.5739 3.6218,-21.6033 3.5942,-21.6316 3.5676,-21.6560 3.5395,-21.6787 3.5101,-21.6996 3.4793,-21.7187 3.4471,-21.7360 3.4135,-21.7516 3.3786,-21.7654 3.3422,-21.7775 3.3045,-21.7878 3.2654,-21.7963 3.2249,-21.8031 3.1847,-21.8079 3.1450,-21.8109 3.1060,-21.8121 3.0676,-21.8113 3.0298,-21.8087 2.9926,-21.8043 2.9560,-21.7980 2.9201,-21.7898 2.8848,-21.7797 2.8501,-21.7678 2.8161,-21.7540 2.7828,-21.7386 2.7507,-21.7216 2.7196,-21.7031 2.6896,-21.6831 2.6607,-21.6616 2.6328,-21.6386 2.6060,-21.6141 2.5802,-21.5880 2.5556,-21.5605 2.5320,-21.5314 2.5094,-21.5008 2.4899,-21.4716 2.4715,-21.4413 2.4543,-21.4099 2.4383,-21.3775 2.4235,-21.3440 2.4098,-21.3094 2.3974,-21.2738 2.3861,-21.2371 2.3760,-21.1994 2.3672,-21.1606 2.3595,-21.1207 2.3530,-21.0798 2.3478,-21.0388 2.3440,-20.9985 2.3417,-20.9588 2.3408,-20.9197 2.3414,-20.8814 2.3434,-20.8436 2.3468,-20.8065 2.3516,-20.7701 2.3579,-20.7344 2.3656,-20.6993 2.3747,-20.6648 2.3853,-20.6310 2.3984,-20.5951 2.4129,-20.5603 2.4288,-20.5268 2.4462,-20.4944 2.4651,-20.4632 2.4854,-20.4332 2.5071,-20.4044 2.5304,-20.3768 2.5550,-20.3503 2.5811,-20.3250 2.6087,-20.3010 2.6376,-20.2783 2.6676,-20.2572 2.6987,-20.2377 2.7309,-20.2199 2.7642,-20.2036 2.7986,-20.1890 2.8342,-20.1760 2.8709,-20.1645 2.9087,-20.1547 2.9476,-20.1465 2.9876,-20.1399 3.0284,-20.1351 3.0683,-20.1323 3.1074,-20.1316 3.1456,-20.1330 3.1831,-20.1365 3.2196,-20.1420 3.2554,-20.1496 3.2903,-20.1593 3.3244,-20.1711 3.3576,-20.1849 3.3901,-20.2009 3.4244,-20.2203 3.4572,-20.2413 3.4883,-20.2638 3.5177,-20.2880 3.5455,-20.3136 3.5716,-20.3409 3.5961,-20.3697 3.6189,-20.4000 3.6401,-20.4320 3.6597,-20.4654 4.0209,-20.2260 4.0033,-20.1944 3.9843,-20.1636 3.9637,-20.1336 3.9415,-20.1043 3.9178,-20.0758 3.8926,-20.0481 3.8658,-20.0211 3.8374,-19.9949 3.8076,-19.9695 3.7762,-19.9448 3.7465,-19.9233 3.7159,-19.9028 3.6844,-19.8834 3.6520,-19.8650 3.6187,-19.8477 3.5846,-19.8315 3.5495,-19.8163 3.5136,-19.8022 3.4768,-19.7891 3.4391,-19.7771 3.4004,-19.7662 3.3644,-19.7573 3.3277,-19.7497 3.2906,-19.7434 3.2529,-19.7384 3.2146,-19.7347 3.1758,-19.7323 3.1364,-19.7313 3.0965,-19.7315 3.0560,-19.7330 3.0150,-19.7358 2.9734,-19.7399Z M5.3848,-19.2795 6.1260,-21.5621 6.9747,-21.2865 7.0129,-21.2735 7.0501,-21.2595 7.0861,-21.2446 7.1209,-21.2287 7.1547,-21.2119 7.1873,-21.1942 7.2188,-21.1756 7.2492,-21.1560 7.2784,-21.1355 7.3066,-21.1141 7.3336,-21.0918 7.3594,-21.0685 7.3862,-21.0421 7.4113,-21.0150 7.4346,-20.9870 7.4563,-20.9581 7.4762,-20.9284 7.4945,-20.8978 7.5110,-20.8664 7.5259,-20.8342 7.5390,-20.8011 7.5505,-20.7671 7.5602,-20.7323 7.5675,-20.6998 7.5731,-20.6667 7.5769,-20.6332 7.5791,-20.5992 7.5795,-20.5646 7.5782,-20.5296 7.5752,-20.4941 7.5705,-20.4580 7.5641,-20.4215 7.5559,-20.3844 7.5460,-20.3469 7.5345,-20.3088 7.5211,-20.2702 7.5065,-20.2331 7.4906,-20.1975 7.4735,-20.1634 7.4552,-20.1308 7.4356,-20.0996 7.4148,-20.0699 7.3928,-20.0417 7.3695,-20.0150 7.3450,-19.9898 7.3193,-19.9660 7.2923,-19.9438 7.2618,-19.9212 7.2304,-19.9005 7.1983,-19.8816 7.1652,-19.8645 7.1314,-19.8493 7.0967,-19.8359 7.0612,-19.8244 7.0249,-19.8147 6.9877,-19.8068 6.9497,-19.8008 6.9109,-19.7966 7.1374,-18.7104 6.6655,-18.8636 6.4673,-19.8594 6.0751,-19.9868 5.8015,-19.1442Z M6.1945,-20.3544 6.6326,-20.2122 6.6699,-20.2014 6.7064,-20.1937 6.7419,-20.1889 6.7766,-20.1872 6.8103,-20.1886 6.8431,-20.1929 6.8810,-20.2018 6.9168,-20.2145 6.9506,-20.2310 6.9824,-20.2512 7.0121,-20.2752 7.0350,-20.2979 7.0558,-20.3228 7.0744,-20.3498 7.0910,-20.3791 7.1054,-20.4105 7.1178,-20.4441 7.1278,-20.4795 7.1348,-20.5141 7.1387,-20.5478 7.1396,-20.5808 7.1373,-20.6130 7.1320,-20.6444 7.1219,-20.6808 7.1079,-20.7154 7.0901,-20.7483 7.0685,-20.7794 7.0431,-20.8088 7.0191,-20.8316 6.9926,-20.8525 6.9635,-20.8714 6.9320,-20.8885 6.8980,-20.9037 6.8614,-20.9169 6.4233,-21.0592Z M7.4863,-18.5793 9.2550,-20.4006 9.7683,-20.1599 9.4988,-17.6354 9.0671,-17.8379 9.1314,-18.3770 8.2914,-18.7710 7.9151,-18.3782Z M8.5693,-19.0677 9.1818,-18.7804 9.3051,-19.8398Z M10.3312,-17.1264 11.3896,-18.8391 10.8601,-19.1664 11.0633,-19.4953 12.4883,-18.6146 12.2851,-18.2858 11.7630,-18.6084 10.7046,-16.8956Z M-13.2493,18.3294 -11.7070,16.5931 -11.0595,17.0244 -11.0250,17.0484 -10.9923,17.0731 -10.9614,17.0986 -10.9324,17.1249 -10.9052,17.1518 -10.8798,17.1795 -10.8562,17.2080 -10.8345,17.2372 -10.8146,17.2672 -10.7966,17.2979 -10.7787,17.3326 -10.7633,17.3678 -10.7503,17.4035 -10.7397,17.4396 -10.7315,17.4762 -10.7257,17.5132 -10.7223,17.5507 -10.7214,17.5887 -10.7228,17.6271 -10.7262,17.6619 -10.7317,17.6966 -10.7393,17.7315 -10.7490,17.7663 -10.7608,17.8011 -10.7747,17.8360 -10.7907,17.8709 -10.8087,17.9058 -10.8289,17.9407 -10.8511,17.9756 -10.8725,18.0063 -10.8948,18.0355 -10.9181,18.0633 -10.9424,18.0896 -10.9676,18.1144 -10.9937,18.1378 -11.0208,18.1597 -11.0489,18.1802 -11.0779,18.1992 -11.1114,18.2187 -11.1457,18.2362 -11.1807,18.2517 -11.2164,18.2651 -11.2528,18.2764 -11.2900,18.2857 -11.3278,18.2930 -11.3664,18.2982 -11.4012,18.3011 -11.4362,18.3023 -11.4715,18.3018 -11.5070,18.2997 -11.5427,18.2958 -11.5788,18.2903 -11.6151,18.2831 -11.6516,18.2742 -11.6884,18.2637 -11.8669,19.2501 -12.1444,19.0653 -11.9676,18.1259 -12.4044,17.8350 -12.9949,18.4988Z M-12.2170,17.6260 -11.7827,17.9152 -11.7474,17.9372 -11.7119,17.9563 -11.6761,17.9726 -11.6402,17.9859 -11.6041,17.9963 -11.5678,18.0038 -11.5314,18.0084 -11.4951,18.0103 -11.4595,18.0097 -11.4246,18.0065 -11.3902,18.0007 -11.3566,17.9924 -11.3236,17.9815 -11.2912,17.9681 -11.2599,17.9521 -11.2300,17.9335 -11.2015,17.9122 -11.1745,17.8884 -11.1489,17.8619 -11.1248,17.8328 -11.1020,17.8011 -11.0813,17.7674 -11.0639,17.7338 -11.0499,17.7002 -11.0393,17.6666 -11.0320,17.6332 -11.0281,17.5997 -11.0276,17.5663 -11.0304,17.5329 -11.0367,17.4996 -11.0461,17.4669 -11.0585,17.4353 -11.0739,17.4048 -11.0922,17.3754 -11.1136,17.3472 -11.1380,17.3200 -11.1653,17.2940 -11.1957,17.2692 -11.2290,17.2454 -11.6375,16.9733Z M-11.0449,19.7613 -11.0797,19.7412 -11.1128,19.7197 -11.1441,19.6967 -11.1738,19.6723 -11.2017,19.6464 -11.2279,19.6191 -11.2524,19.5904 -11.2747,19.5605 -11.2943,19.5298 -11.3113,19.4983 -11.3255,19.4659 -11.3371,19.4327 -11.3460,19.3987 -11.3523,19.3638 -11.3553,19.3283 -11.3547,19.2924 -11.3505,19.2562 -11.3426,19.2196 -11.3311,19.1825 -11.3159,19.1452 -11.2970,19.1074 -11.2762,19.0723 -11.2535,19.0397 -11.2287,19.0097 -11.2020,18.9824 -11.1733,18.9575 -11.1427,18.9353 -11.1101,18.9157 -11.0801,18.9006 -11.0491,18.8876 -11.0169,18.8765 -10.9837,18.8676 -10.9494,18.8606 -10.9140,18.8557 -10.8775,18.8527 -10.8398,18.8518 -10.8057,18.8527 -10.7710,18.8551 -10.7358,18.8591 -10.7001,18.8646 -10.6639,18.8716 -10.6272,18.8801 -10.5899,18.8902 -10.5522,18.9018 -10.5139,18.9150 -9.9448,19.1158 -9.9143,19.0727 -9.8896,19.0373 -9.8709,19.0021 -9.8582,18.9672 -9.8515,18.9325 -9.8509,18.8981 -9.8553,18.8643 -9.8635,18.8319 -9.8757,18.8006 -9.8918,18.7706 -9.9118,18.7419 -9.9348,18.7148 -9.9599,18.6898 -9.9872,18.6669 -10.0165,18.6461 -10.0480,18.6273 -10.0814,18.6105 -10.1150,18.5964 -10.1489,18.5848 -10.1830,18.5758 -10.2174,18.5694 -10.2521,18.5657 -10.2870,18.5645 -10.3222,18.5660 -10.3620,18.5703 -10.4006,18.5772 -10.4381,18.5866 -10.4744,18.5984 -10.5096,18.6128 -10.5436,18.6296 -10.5765,18.6490 -10.7186,18.4064 -10.6870,18.3871 -10.6543,18.3696 -10.6204,18.3539 -10.5855,18.3400 -10.5495,18.3279 -10.5124,18.3177 -10.4742,18.3092 -10.4401,18.3034 -10.4056,18.2991 -10.3708,18.2963 -10.3355,18.2951 -10.2999,18.2953 -10.2639,18.2971 -10.2276,18.3004 -10.1908,18.3053 -10.1540,18.3117 -10.1176,18.3198 -10.0814,18.3295 -10.0455,18.3409 -10.0099,18.3540 -9.9745,18.3686 -9.9395,18.3850 -9.9048,18.4030 -9.8695,18.4233 -9.8360,18.4448 -9.8042,18.4675 -9.7742,18.4914 -9.7459,18.5166 -9.7194,18.5430 -9.6946,18.5706 -9.6715,18.5994 -9.6502,18.6294 -9.6309,18.6603 -9.6138,18.6916 -9.5990,18.7233 -9.5864,18.7555 -9.5760,18.7881 -9.5679,18.8211 -9.5620,18.8546 -9.5583,18.8885 -9.5568,18.9228 -9.5578,18.9572 -9.5615,18.9914 -9.5679,19.0253 -9.5770,19.0590 -9.5887,19.0925 -9.6032,19.1256 -9.6203,19.1586 -9.6401,19.1913 -9.6626,19.2237 -10.3222,20.1125 -10.5717,19.9768 -10.4599,19.8232 -10.4947,19.8339 -10.5300,19.8428 -10.5659,19.8499 -10.5997,19.8538 -10.6336,19.8563 -10.6678,19.8572 -10.7021,19.8566 -10.7366,19.8545 -10.7712,19.8508 -10.8061,19.8456 -10.8409,19.8388 -10.8755,19.8302 -10.9098,19.8199 -10.9439,19.8079 -10.9778,19.7941 -11.0115,19.7786Z M-10.0913,19.3138 -10.5827,19.1447 -10.6253,19.1317 -10.6666,19.1216 -10.7064,19.1145 -10.7448,19.1104 -10.7819,19.1093 -10.8175,19.1111 -10.8518,19.1160 -10.8892,19.1255 -10.9232,19.1394 -10.9536,19.1577 -10.9805,19.1803 -11.0040,19.2072 -11.0239,19.2385 -11.0381,19.2692 -11.0473,19.2997 -11.0515,19.3302 -11.0506,19.3606 -11.0447,19.3910 -11.0337,19.4212 -11.0183,19.4505 -10.9990,19.4782 -10.9757,19.5042 -10.9485,19.5285 -10.9173,19.5512 -10.8822,19.5722 -10.8502,19.5884 -10.8179,19.6024 -10.7853,19.6141 -10.7524,19.6235 -10.7192,19.6307 -10.6857,19.6356 -10.6520,19.6383 -10.6179,19.6387 -10.5790,19.6367 -10.5407,19.6321 -10.5029,19.6251 -10.4655,19.6155 -10.4287,19.6035 -10.3924,19.5889 -10.3565,19.5719 -10.3261,19.5551 -10.2969,19.5368 -10.2690,19.5169 -10.2425,19.4955 -10.2173,19.4726 -10.1933,19.4482 -10.1707,19.4222 -10.1494,19.3947Z M-9.1955,20.6657 -9.2349,20.6465 -9.2714,20.6261 -9.3050,20.6044 -9.3356,20.5814 -9.3632,20.5572 -9.3880,20.5317 -9.4097,20.5050 -9.4286,20.4771 -9.4445,20.4478 -9.4575,20.4174 -9.4676,20.3857 -9.4741,20.3557 -9.4782,20.3253 -9.4797,20.2942 -9.4787,20.2626 -9.4751,20.2305 -9.4690,20.1977 -9.4604,20.1645 -9.4492,20.1306 -9.4355,20.0962 -9.4193,20.0613 -9.4005,20.0257 -9.3791,19.9897 -8.9106,19.2497 -9.1839,19.1255 -9.0347,18.8923 -8.9848,18.9150 -8.9511,18.9281 -8.9174,18.9368 -8.8837,18.9411 -8.8501,18.9410 -8.8164,18.9365 -8.7828,18.9275 -8.7504,18.9147 -8.7203,18.8984 -8.6925,18.8786 -8.6671,18.8554 -8.6441,18.8288 -8.6234,18.7987 -8.5545,18.6901 -8.2875,18.8114 -8.4944,19.1379 -8.1592,19.2902 -8.3084,19.5234 -8.6436,19.3711 -9.1174,20.1171 -9.1383,20.1522 -9.1549,20.1861 -9.1671,20.2188 -9.1750,20.2503 -9.1779,20.2805 -9.1749,20.3093 -9.1661,20.3367 -9.1515,20.3627 -9.1306,20.3874 -9.1031,20.4108 -9.0688,20.4329 -9.0279,20.4536 -8.9998,20.4657 -8.9702,20.4769 -8.9406,20.4871 -8.9124,20.4960 -9.0394,20.7214 -9.0666,20.7154 -9.0947,20.7070 -9.1238,20.6962 -9.1639,20.6796Z M-7.9437,21.1785 -7.9842,21.1616 -8.0218,21.1434 -8.0566,21.1237 -8.0885,21.1027 -8.1176,21.0801 -8.1438,21.0562 -8.1671,21.0309 -8.1876,21.0041 -8.2053,20.9759 -8.2201,20.9462 -8.2320,20.9152 -8.2404,20.8857 -8.2462,20.8555 -8.2496,20.8246 -8.2505,20.7930 -8.2488,20.7607 -8.2447,20.7277 -8.2381,20.6939 -8.2289,20.6595 -8.2173,20.6243 -8.2032,20.5885 -8.1865,20.5519 -8.1674,20.5146 -7.7439,19.7480 -8.0242,19.6403 -7.8892,19.3986 -7.8380,19.4183 -7.8036,19.4294 -7.7694,19.4360 -7.7356,19.4383 -7.7020,19.4362 -7.6687,19.4297 -7.6356,19.4187 -7.6040,19.4039 -7.5750,19.3859 -7.5485,19.3645 -7.5245,19.3398 -7.5031,19.3118 -7.4842,19.2805 -7.4219,19.1680 -7.1482,19.2732 -7.3351,19.6115 -6.9915,19.7435 -7.1265,19.9851 -7.4701,19.8531 -7.8985,20.6261 -7.9173,20.6625 -7.9318,20.6973 -7.9420,20.7307 -7.9481,20.7626 -7.9491,20.7929 -7.9444,20.8214 -7.9340,20.8483 -7.9179,20.8734 -7.8956,20.8968 -7.8667,20.9185 -7.8312,20.9385 -7.7891,20.9567 -7.7603,20.9671 -7.7301,20.9765 -7.7000,20.9849 -7.6712,20.9921 -7.7845,21.2247 -7.8120,21.2204 -7.8406,21.2137 -7.8702,21.2046 -7.9113,21.1904Z M-6.7527,21.6073 -6.7911,21.5945 -6.8277,21.5800 -6.8625,21.5639 -6.8954,21.5461 -6.9264,21.5267 -6.9556,21.5056 -6.9829,21.4828 -7.0083,21.4583 -7.0319,21.4322 -7.0534,21.4047 -7.0727,21.3760 -7.0898,21.3462 -7.1047,21.3152 -7.1174,21.2830 -7.1278,21.2497 -7.1360,21.2152 -7.1420,21.1796 -7.1457,21.1428 -7.1471,21.1089 -7.1465,21.0745 -7.1438,21.0395 -7.1392,21.0039 -7.1326,20.9678 -7.1239,20.9311 -7.1132,20.8939 -7.1006,20.8561 -7.0859,20.8178 -7.0692,20.7789 -6.6430,19.8629 -6.3653,19.9472 -6.7980,20.8741 -6.8133,20.9116 -6.8252,20.9483 -6.8339,20.9842 -6.8392,21.0193 -6.8413,21.0536 -6.8401,21.0871 -6.8345,21.1258 -6.8247,21.1623 -6.8106,21.1966 -6.7922,21.2286 -6.7695,21.2586 -6.7474,21.2815 -6.7226,21.3024 -6.6949,21.3211 -6.6645,21.3377 -6.6312,21.3523 -6.5952,21.3647 -6.5569,21.3747 -6.5190,21.3815 -6.4812,21.3851 -6.4438,21.3855 -6.4067,21.3827 -6.3698,21.3766 -6.3335,21.3675 -6.2981,21.3555 -6.2637,21.3406 -6.2302,21.3229 -6.1976,21.3022 -6.1659,21.2787 -6.1399,21.2563 -6.1153,21.2319 -6.0923,21.2055 -6.0707,21.1770 -6.0507,21.1464 -6.0321,21.1139 -6.0151,21.0793 -5.5971,20.1802 -5.3224,20.2635 -6.0270,21.7887 -6.2958,21.7071 -6.2166,21.5311 -6.2475,21.5520 -6.2795,21.5705 -6.3125,21.5867 -6.3467,21.6006 -6.3819,21.6123 -6.4183,21.6216 -6.4546,21.6288 -6.4912,21.6339 -6.5279,21.6367 -6.5649,21.6373 -6.6020,21.6357 -6.6394,21.6319 -6.6769,21.6259 -6.7147,21.6177Z M-4.8800,22.1049 -4.9193,22.0954 -4.9576,22.0843 -4.9946,22.0717 -5.0305,22.0575 -5.0652,22.0417 -5.0987,22.0243 -5.1311,22.0054 -5.1623,21.9849 -5.1921,21.9630 -5.2202,21.9399 -5.2468,21.9157 -5.2717,21.8902 -5.2950,21.8636 -5.3166,21.8358 -5.3366,21.8068 -5.3550,21.7766 -5.3716,21.7455 -5.3863,21.7137 -5.3990,21.6813 -5.4098,21.6482 -5.4186,21.6145 -5.4255,21.5802 -5.4305,21.5451 -5.4335,21.5095 -5.1808,21.4666 -5.1741,21.5046 -5.1649,21.5411 -5.1534,21.5760 -5.1395,21.6095 -5.1232,21.6415 -5.1046,21.6719 -5.0835,21.7009 -5.0601,21.7283 -5.0347,21.7538 -5.0075,21.7771 -4.9787,21.7980 -4.9481,21.8167 -4.9158,21.8331 -4.8818,21.8472 -4.8461,21.8589 -4.8087,21.8684 -4.7685,21.8757 -4.7300,21.8795 -4.6931,21.8799 -4.6577,21.8770 -4.6240,21.8706 -4.5918,21.8609 -4.5613,21.8477 -4.5288,21.8289 -4.5008,21.8070 -4.4774,21.7822 -4.4584,21.7543 -4.4439,21.7234 -4.4339,21.6894 -4.4294,21.6516 -4.4326,21.6159 -4.4437,21.5822 -4.4625,21.5505 -4.4828,21.5264 -4.5072,21.5032 -4.5357,21.4809 -4.5684,21.4594 -4.6052,21.4388 -4.8289,21.3198 -4.8664,21.2989 -4.9014,21.2770 -4.9338,21.2542 -4.9638,21.2304 -4.9913,21.2057 -5.0163,21.1799 -5.0387,21.1532 -5.0587,21.1255 -5.0761,21.0968 -5.0927,21.0637 -5.1059,21.0299 -5.1159,20.9954 -5.1225,20.9603 -5.1258,20.9245 -5.1258,20.8881 -5.1225,20.8510 -5.1158,20.8133 -5.1068,20.7780 -5.0955,20.7441 -5.0819,20.7117 -5.0659,20.6807 -5.0476,20.6511 -5.0270,20.6230 -5.0041,20.5963 -4.9789,20.5710 -4.9518,20.5473 -4.9232,20.5256 -4.8932,20.5057 -4.8617,20.4876 -4.8287,20.4714 -4.7943,20.4571 -4.7585,20.4446 -4.7211,20.4340 -4.6871,20.4264 -4.6527,20.4205 -4.6180,20.4166 -4.5828,20.4145 -4.5473,20.4142 -4.5114,20.4158 -4.4752,20.4193 -4.4385,20.4246 -4.4015,20.4318 -4.3618,20.4415 -4.3235,20.4527 -4.2866,20.4657 -4.2511,20.4803 -4.2171,20.4965 -4.1845,20.5144 -4.1533,20.5339 -4.1235,20.5551 -4.0951,20.5779 -4.0682,20.6024 -4.0427,20.6285 -4.0190,20.6559 -3.9974,20.6842 -3.9778,20.7134 -3.9604,20.7435 -3.9451,20.7745 -3.9319,20.8064 -3.9208,20.8391 -3.9119,20.8728 -3.9050,20.9074 -3.9002,20.9429 -3.8976,20.9793 -4.1540,21.0213 -4.1593,20.9829 -4.1673,20.9464 -4.1783,20.9118 -4.1920,20.8792 -4.2086,20.8485 -4.2281,20.8198 -4.2504,20.7930 -4.2751,20.7684 -4.3020,20.7463 -4.3309,20.7267 -4.3620,20.7096 -4.3951,20.6951 -4.4303,20.6830 -4.4676,20.6733 -4.5052,20.6666 -4.5414,20.6629 -4.5762,20.6624 -4.6096,20.6650 -4.6415,20.6707 -4.6720,20.6796 -4.7011,20.6916 -4.7320,20.7090 -4.7587,20.7294 -4.7811,20.7530 -4.7993,20.7797 -4.8132,20.8095 -4.8228,20.8424 -4.8277,20.8801 -4.8256,20.9154 -4.8164,20.9485 -4.8001,20.9792 -4.7822,21.0026 -4.7602,21.0251 -4.7340,21.0469 -4.7038,21.0680 -4.6694,21.0883 -4.4286,21.2229 -4.3919,21.2445 -4.3576,21.2669 -4.3257,21.2902 -4.2961,21.3145 -4.2690,21.3396 -4.2442,21.3657 -4.2218,21.3926 -4.2017,21.4205 -4.1841,21.4492 -4.1673,21.4824 -4.1538,21.5163 -4.1437,21.5509 -4.1369,21.5861 -4.1335,21.6220 -4.1335,21.6586 -4.1368,21.6959 -4.1434,21.7338 -4.1524,21.7687 -4.1637,21.8022 -4.1773,21.8343 -4.1933,21.8649 -4.2117,21.8941 -4.2324,21.9219 -4.2555,21.9483 -4.2809,21.9732 -4.3083,21.9965 -4.3373,22.0179 -4.3679,22.0374 -4.4000,22.0551 -4.4337,22.0708 -4.4690,22.0848 -4.5059,22.0968 -4.5443,22.1069 -4.5794,22.1142 -4.6151,22.1196 -4.6513,22.1231 -4.6881,22.1248 -4.7254,22.1245 -4.7632,22.1224 -4.8016,22.1184 -4.8405,22.1126Z M-3.1737,22.3900 -2.7645,20.7601 -2.4852,20.7898 -2.5300,20.9775 -2.5036,20.9522 -2.4758,20.9287 -2.4464,20.9072 -2.4155,20.8875 -2.3831,20.8698 -2.3492,20.8539 -2.3142,20.8394 -2.2787,20.8270 -2.2428,20.8169 -2.2064,20.8090 -2.1696,20.8032 -2.1323,20.7997 -2.0945,20.7983 -2.0563,20.7991 -2.0177,20.8022 -1.9782,20.8075 -1.9401,20.8147 -1.9034,20.8240 -1.8682,20.8352 -1.8344,20.8485 -1.8021,20.8637 -1.7712,20.8810 -1.7417,20.9002 -1.7137,20.9214 -1.6873,20.9443 -1.6628,20.9686 -1.6402,20.9942 -1.6194,21.0213 -1.6005,21.0497 -1.5835,21.0794 -1.5684,21.1106 -1.5551,21.1431 -1.5437,21.1770 -1.5344,21.2119 -1.5274,21.2477 -1.5228,21.2842 -1.5206,21.3216 -1.5207,21.3597 -1.5231,21.3986 -1.5279,21.4382 -1.5350,21.4787 -1.5444,21.5200 -1.7983,22.5361 -2.0869,22.5055 -1.8387,21.5135 -1.8304,21.4733 -1.8251,21.4346 -1.8229,21.3976 -1.8238,21.3621 -1.8278,21.3282 -1.8349,21.2959 -1.8450,21.2652 -1.8583,21.2361 -1.8746,21.2086 -1.8961,21.1801 -1.9205,21.1548 -1.9477,21.1327 -1.9778,21.1138 -2.0108,21.0980 -2.0466,21.0855 -2.0853,21.0762 -2.1269,21.0700 -2.1664,21.0673 -2.2051,21.0677 -2.2430,21.0712 -2.2802,21.0779 -2.3165,21.0876 -2.3521,21.1004 -2.3864,21.1161 -2.4192,21.1345 -2.4503,21.1555 -2.4798,21.1793 -2.5077,21.2057 -2.5340,21.2347 -2.5550,21.2617 -2.5744,21.2903 -2.5921,21.3206 -2.6081,21.3526 -2.6225,21.3863 -2.6352,21.4217 -2.6463,21.4588 -2.8851,22.4207Z M-0.4096,22.6334 -0.4505,22.6319 -0.4907,22.6286 -0.5301,22.6237 -0.5688,22.6171 -0.6067,22.6087 -0.6439,22.5986 -0.6804,22.5868 -0.7161,22.5733 -0.7511,22.5581 -0.7854,22.5412 -0.8189,22.5226 -0.8514,22.5025 -0.8827,22.4810 -0.9127,22.4582 -0.9414,22.4340 -0.9688,22.4086 -0.9950,22.3818 -1.0199,22.3536 -1.0435,22.3242 -1.0658,22.2934 -1.0869,22.2612 -1.1067,22.2278 -1.1235,22.1961 -1.1388,22.1637 -1.1526,22.1306 -1.1649,22.0967 -1.1756,22.0621 -1.1848,22.0268 -1.1925,21.9907 -1.1987,21.9539 -1.2034,21.9163 -1.2065,21.8780 -1.2082,21.8390 -1.2083,21.7993 -1.2070,21.7615 -1.2043,21.7243 -1.2002,21.6876 -1.1948,21.6513 -1.1880,21.6156 -1.1798,21.5803 -1.1702,21.5456 -1.1592,21.5113 -1.1469,21.4775 -1.1331,21.4442 -1.1164,21.4080 -1.0984,21.3729 -1.0790,21.3387 -1.0582,21.3056 -1.0362,21.2736 -1.0127,21.2425 -0.9879,21.2125 -0.9618,21.1836 -0.9344,21.1556 -0.9057,21.1289 -0.8761,21.1035 -0.8456,21.0795 -0.8140,21.0568 -0.7815,21.0355 -0.7480,21.0156 -0.7136,20.9970 -0.6782,20.9797 -0.6418,20.9639 -0.6084,20.9509 -0.5746,20.9394 -0.5403,20.9293 -0.5055,20.9206 -0.4703,20.9134 -0.4347,20.9075 -0.3986,20.9032 -0.3620,20.9002 -0.3250,20.8987 -0.2876,20.8985 -0.2494,20.8999 -0.2118,20.9027 -0.1749,20.9069 -0.1387,20.9125 -0.1032,20.9196 -0.0684,20.9281 -0.0342,20.9381 -0.0008,20.9495 0.0320,20.9623 0.0641,20.9766 0.0955,20.9923 0.1263,21.0094 0.1588,21.0295 0.1900,21.0509 0.2199,21.0736 0.2486,21.0976 0.2759,21.1229 0.3019,21.1494 0.3266,21.1773 0.3501,21.2064 0.3722,21.2368 0.3931,21.2685 0.4126,21.3015 0.4292,21.3327 0.4443,21.3647 0.4578,21.3974 0.4699,21.4309 0.4805,21.4651 0.4896,21.5001 0.4972,21.5358 0.5033,21.5723 0.5079,21.6095 0.5110,21.6475 0.5126,21.6863 0.5127,21.7258 0.5114,21.7635 0.5087,21.8007 0.5046,21.8375 0.4990,21.8738 0.4921,21.9096 0.4838,21.9450 0.4740,21.9798 0.4629,22.0142 0.4503,22.0481 0.4364,22.0815 0.4212,22.1143 0.4049,22.1463 0.3875,22.1775 0.3690,22.2079 0.3494,22.2375 0.3288,22.2663 0.3070,22.2943 0.2842,22.3215 0.2602,22.3480 0.2352,22.3736 0.2064,22.4009 0.1766,22.4268 0.1459,22.4512 0.1143,22.4742 0.0818,22.4959 0.0484,22.5160 0.0140,22.5348 -0.0212,22.5521 -0.0574,22.5680 -0.0905,22.5810 -0.1242,22.5925 -0.1583,22.6026 -0.1928,22.6113 -0.2278,22.6186 -0.2633,22.6244 -0.2992,22.6288 -0.3355,22.6317 -0.3724,22.6333Z M-0.4059,22.3556 -0.3683,22.3551 -0.3315,22.3524 -0.2955,22.3474 -0.2603,22.3403 -0.2260,22.3309 -0.1925,22.3194 -0.1598,22.3056 -0.1280,22.2896 -0.0970,22.2714 -0.0671,22.2513 -0.0386,22.2298 -0.0114,22.2068 0.0143,22.1824 0.0387,22.1565 0.0617,22.1291 0.0834,22.1003 0.1036,22.0700 0.1225,22.0383 0.1397,22.0055 0.1550,21.9719 0.1683,21.9377 0.1796,21.9027 0.1891,21.8670 0.1965,21.8306 0.2020,21.7934 0.2056,21.7556 0.2072,21.7170 0.2068,21.6787 0.2043,21.6416 0.1998,21.6055 0.1933,21.5704 0.1847,21.5364 0.1741,21.5035 0.1615,21.4716 0.1468,21.4408 0.1277,21.4073 0.1067,21.3758 0.0835,21.3464 0.0582,21.3190 0.0309,21.2937 0.0015,21.2705 -0.0300,21.2493 -0.0590,21.2327 -0.0891,21.2183 -0.1201,21.2060 -0.1523,21.1958 -0.1855,21.1877 -0.2197,21.1818 -0.2550,21.1780 -0.2913,21.1764 -0.3285,21.1769 -0.3649,21.1795 -0.4005,21.1844 -0.4354,21.1914 -0.4695,21.2007 -0.5029,21.2121 -0.5354,21.2257 -0.5673,21.2415 -0.5983,21.2594 -0.6283,21.2792 -0.6569,21.3004 -0.6841,21.3231 -0.7099,21.3472 -0.7343,21.3727 -0.7573,21.3996 -0.7790,21.4280 -0.7993,21.4578 -0.8181,21.4890 -0.8353,21.5214 -0.8506,21.5546 -0.8639,21.5886 -0.8753,21.6235 -0.8847,21.6592 -0.8921,21.6957 -0.8976,21.7331 -0.9012,21.7713 -0.9028,21.8103 -0.9024,21.8486 -0.9000,21.8858 -0.8955,21.9220 -0.8889,21.9572 -0.8804,21.9914 -0.8698,22.0245 -0.8571,22.0566 -0.8424,22.0876 -0.8234,22.1215 -0.8024,22.1534 -0.7793,22.1831 -0.7541,22.2108 -0.7270,22.2364 -0.6977,22.2600 -0.6664,22.2815 -0.6376,22.2984 -0.6077,22.3130 -0.5768,22.3255 -0.5448,22.3359 -0.5117,22.3440 -0.4775,22.3500 -0.4423,22.3539Z M0.8764,22.5872 1.0141,20.9124 1.2976,20.8959 1.2810,21.0886 1.3028,21.0585 1.3264,21.0303 1.3519,21.0041 1.3791,20.9798 1.4082,20.9575 1.4392,20.9371 1.4713,20.9193 1.5049,20.9036 1.5399,20.8898 1.5765,20.8781 1.6145,20.8685 1.6539,20.8609 1.6949,20.8553 1.7373,20.8518 1.8390,20.8459 1.8147,21.1194 1.6698,21.1278 1.6316,21.1315 1.5948,21.1378 1.5596,21.1468 1.5259,21.1585 1.4938,21.1729 1.4632,21.1900 1.4341,21.2098 1.4065,21.2323 1.3805,21.2575 1.3587,21.2825 1.3387,21.3096 1.3207,21.3389 1.3044,21.3703 1.2900,21.4039 1.2775,21.4396 1.2669,21.4775 1.2580,21.5175 1.2511,21.5596 1.2460,21.6040 1.1692,22.5702Z M2.5318,22.4592 1.9160,20.8589 2.2193,20.8212 2.6626,22.0354 3.1506,20.7055 3.4815,20.6643 2.8044,22.4253Z M4.6533,22.1536 4.6124,22.1613 4.5720,22.1672 4.5322,22.1711 4.4929,22.1732 4.4541,22.1734 4.4159,22.1717 4.3782,22.1681 4.3411,22.1626 4.3045,22.1552 4.2684,22.1460 4.2329,22.1348 4.1982,22.1220 4.1644,22.1076 4.1315,22.0917 4.0996,22.0742 4.0687,22.0553 4.0387,22.0348 4.0097,22.0127 3.9816,21.9892 3.9545,21.9641 3.9283,21.9374 3.9031,21.9093 3.8810,21.8823 3.8602,21.8543 3.8406,21.8253 3.8222,21.7954 3.8050,21.7645 3.7890,21.7326 3.7743,21.6997 3.7607,21.6658 3.7484,21.6310 3.7373,21.5952 3.7274,21.5584 3.7188,21.5206 3.7117,21.4838 3.7059,21.4472 3.7015,21.4107 3.6983,21.3745 3.6966,21.3383 3.6961,21.3024 3.6970,21.2666 3.6992,21.2309 3.7027,21.1954 3.7076,21.1601 3.7145,21.1213 3.7229,21.0831 3.7328,21.0454 3.7443,21.0084 3.7574,20.9720 3.7719,20.9363 3.7880,20.9011 3.8056,20.8665 3.8248,20.8326 3.8453,20.7995 3.8670,20.7677 3.8898,20.7370 3.9139,20.7076 3.9391,20.6793 3.9656,20.6522 3.9932,20.6263 4.0220,20.6016 4.0520,20.5781 4.0800,20.5581 4.1089,20.5394 4.1388,20.5220 4.1696,20.5059 4.2013,20.4911 4.2339,20.4775 4.2675,20.4653 4.3020,20.4543 4.3375,20.4446 4.3739,20.4362 4.4152,20.4284 4.4558,20.4225 4.4956,20.4186 4.5345,20.4166 4.5727,20.4165 4.6101,20.4184 4.6467,20.4222 4.6825,20.4280 4.7176,20.4357 4.7518,20.4453 4.7852,20.4569 4.8210,20.4715 4.8554,20.4876 4.8886,20.5053 4.9206,20.5246 4.9513,20.5454 4.9808,20.5677 5.0090,20.5917 5.0360,20.6171 5.0617,20.6442 5.0862,20.6728 5.1093,20.7026 5.1308,20.7334 5.1507,20.7651 5.1690,20.7977 5.1858,20.8312 5.2010,20.8657 5.2147,20.9011 5.2267,20.9375 5.2372,20.9748 5.2461,21.0130 5.2525,21.0481 5.2571,21.0850 5.2600,21.1236 5.2616,21.1612 5.2623,21.1946 5.2622,21.2241 4.0145,21.4867 4.0164,21.4958 4.0183,21.5049 4.0271,21.5418 4.0378,21.5771 4.0501,21.6107 4.0643,21.6427 4.0802,21.6730 4.0979,21.7017 4.1174,21.7287 4.1386,21.7540 4.1645,21.7808 4.1918,21.8050 4.2204,21.8267 4.2504,21.8459 4.2817,21.8625 4.3143,21.8766 4.3482,21.8881 4.3831,21.8971 4.4184,21.9035 4.4542,21.9073 4.4905,21.9084 4.5273,21.9069 4.5646,21.9029 4.6023,21.8962 4.6429,21.8864 4.6814,21.8745 4.7181,21.8605 4.7527,21.8444 4.7854,21.8262 4.8161,21.8059 4.8448,21.7835 4.8716,21.7591 4.8965,21.7330 4.9199,21.7060 4.9416,21.6780 4.9616,21.6490 4.9800,21.6190 4.9968,21.5881 5.0119,21.5561 5.0254,21.5232 5.2848,21.6011 5.2740,21.6363 5.2611,21.6711 5.2461,21.7055 5.2289,21.7396 5.2096,21.7732 5.1881,21.8065 5.1645,21.8394 5.1423,21.8675 5.1186,21.8946 5.0935,21.9207 5.0671,21.9459 5.0392,21.9700 5.0100,21.9932 4.9794,22.0153 4.9473,22.0365 4.9179,22.0543 4.8876,22.0709 4.8565,22.0863 4.8246,22.1005 4.7920,22.1135 4.7585,22.1253 4.7242,22.1360 4.6892,22.1454Z M3.9938,21.2387 4.9425,21.0390 4.9359,21.0031 4.9266,20.9687 4.9147,20.9358 4.9000,20.9046 4.8827,20.8749 4.8613,20.8435 4.8378,20.8147 4.8123,20.7884 4.7848,20.7647 4.7552,20.7435 4.7236,20.7249 4.6900,20.7088 4.6593,20.6972 4.6278,20.6881 4.5957,20.6816 4.5627,20.6777 4.5291,20.6763 4.4947,20.6775 4.4595,20.6813 4.4236,20.6876 4.3837,20.6972 4.3457,20.7086 4.3098,20.7219 4.2758,20.7371 4.2438,20.7542 4.2138,20.7731 4.1858,20.7940 4.1598,20.8167 4.1358,20.8413 4.1137,20.8675 4.0935,20.8952 4.0752,20.9243 4.0589,20.9548 4.0444,20.9868 4.0318,21.0202 4.0211,21.0550 4.0123,21.0913 4.0055,21.1290 3.9993,21.1646 3.9954,21.2012Z M6.6976,22.2957 6.6585,22.3071 6.6200,22.3168 6.5820,22.3248 6.5445,22.3312 6.5076,22.3360 6.4712,22.3392 6.4353,22.3407 6.3999,22.3405 6.3651,22.3387 6.3268,22.3349 6.2896,22.3294 6.2535,22.3220 6.2186,22.3130 6.1848,22.3021 6.1521,22.2895 6.1205,22.2751 6.0900,22.2590 6.0568,22.2387 6.0254,22.2165 5.9959,22.1924 5.9683,22.1666 5.9426,22.1389 5.9187,22.1094 5.8967,22.0780 6.1271,21.9034 6.1463,21.9300 6.1683,21.9542 6.1930,21.9762 6.2206,21.9958 6.2509,22.0132 6.2840,22.0282 6.3199,22.0409 6.3496,22.0487 6.3807,22.0540 6.4133,22.0569 6.4473,22.0573 6.4828,22.0553 6.5197,22.0509 6.5581,22.0440 6.5979,22.0347 6.6391,22.0230 6.6748,22.0108 6.7094,21.9969 6.7429,21.9811 6.7753,21.9634 6.8066,21.9440 6.8368,21.9227 6.8659,21.8995 6.8934,21.8747 6.9190,21.8485 6.9425,21.8209 6.9640,21.7919 6.9834,21.7614 7.0009,21.7296 7.0163,21.6963 7.0292,21.6617 7.0389,21.6260 7.0455,21.5891 7.0490,21.5511 7.0493,21.5119 7.0466,21.4717 7.0407,21.4302 7.0098,21.2362 6.9909,21.2696 6.9701,21.3017 6.9473,21.3327 6.9226,21.3624 6.8960,21.3909 6.8682,21.4167 6.8393,21.4410 6.8093,21.4639 6.7784,21.4852 6.7463,21.5051 6.7133,21.5234 6.6792,21.5403 6.6440,21.5557 6.6078,21.5696 6.5706,21.5820 6.5342,21.5925 6.4978,21.6012 6.4616,21.6082 6.4254,21.6135 6.3893,21.6171 6.3533,21.6189 6.3174,21.6191 6.2816,21.6176 6.2459,21.6143 6.2102,21.6094 6.1747,21.6027 6.1395,21.5944 6.1052,21.5845 6.0717,21.5730 6.0389,21.5600 6.0070,21.5453 5.9758,21.5291 5.9454,21.5113 5.9159,21.4919 5.8871,21.4710 5.8591,21.4484 5.8319,21.4243 5.8058,21.3987 5.7809,21.3718 5.7574,21.3435 5.7353,21.3139 5.7144,21.2830 5.6949,21.2507 5.6767,21.2170 5.6598,21.1821 5.6442,21.1457 5.6299,21.1081 5.6170,21.0691 5.6057,21.0298 5.5961,20.9905 5.5882,20.9514 5.5820,20.9123 5.5774,20.8733 5.5746,20.8344 5.5735,20.7956 5.5741,20.7568 5.5763,20.7181 5.5803,20.6797 5.5857,20.6419 5.5928,20.6047 5.6015,20.5681 5.6117,20.5321 5.6235,20.4967 5.6369,20.4619 5.6518,20.4276 5.6684,20.3939 5.6863,20.3610 5.7056,20.3291 5.7261,20.2980 5.7479,20.2678 5.7710,20.2386 5.7954,20.2103 5.8211,20.1829 5.8480,20.1565 5.8763,20.1309 5.9057,20.1066 5.9363,20.0836 5.9681,20.0621 6.0010,20.0421 6.0351,20.0235 6.0704,20.0063 6.1068,19.9905 6.1444,19.9762 6.1831,19.9633 6.2225,19.9521 6.2615,19.9428 6.3001,19.9356 6.3384,19.9303 6.3763,19.9270 6.4139,19.9257 6.4511,19.9264 6.4879,19.9290 6.5244,19.9337 6.5606,19.9403 6.5975,19.9498 6.6334,19.9610 6.6684,19.9739 6.7023,19.9886 6.7353,20.0049 6.7673,20.0230 6.7983,20.0428 6.8283,20.0643 6.7840,19.8163 7.0583,19.7315 7.3236,21.3524 7.3293,21.3907 7.3333,21.4287 7.3354,21.4664 7.3358,21.5038 7.3344,21.5408 7.3312,21.5774 7.3262,21.6138 7.3194,21.6498 7.3109,21.6855 7.3006,21.7209 7.2884,21.7559 7.2748,21.7904 7.2598,21.8240 7.2434,21.8567 7.2258,21.8886 7.2068,21.9197 7.1864,21.9499 7.1648,21.9793 7.1418,22.0079 7.1175,22.0356 7.0918,22.0624 7.0649,22.0884 7.0367,22.1134 7.0075,22.1371 6.9773,22.1597 6.9460,22.1810 6.9136,22.2010 6.8802,22.2199 6.8458,22.2375 6.8103,22.2539 6.7738,22.2691 6.7362,22.2830Z M6.5180,21.3075 6.5562,21.2943 6.5927,21.2789 6.6274,21.2614 6.6604,21.2416 6.6917,21.2197 6.7212,21.1956 6.7490,21.1692 6.7750,21.1407 6.7992,21.1106 6.8213,21.0794 6.8414,21.0471 6.8594,21.0137 6.8753,20.9792 6.8892,20.9437 6.9011,20.9070 6.9109,20.8693 6.9183,20.8311 6.9233,20.7929 6.9257,20.7549 6.9255,20.7169 6.9228,20.6790 6.9176,20.6412 6.9098,20.6035 6.8994,20.5658 6.8861,20.5272 6.8708,20.4904 6.8534,20.4555 6.8340,20.4225 6.8125,20.3914 6.7890,20.3622 6.7634,20.3349 6.7361,20.3097 6.7076,20.2871 6.6778,20.2670 6.6467,20.2493 6.6143,20.2342 6.5807,20.2216 6.5458,20.2115 6.5100,20.2041 6.4734,20.1998 6.4361,20.1986 6.3981,20.2004 6.3594,20.2053 6.3201,20.2132 6.2800,20.2242 6.2438,20.2367 6.2090,20.2514 6.1756,20.2683 6.1436,20.2874 6.1129,20.3087 6.0837,20.3322 6.0558,20.3578 6.0294,20.3857 6.0047,20.4153 5.9820,20.4459 5.9615,20.4777 5.9432,20.5105 5.9269,20.5445 5.9127,20.5796 5.9007,20.6159 5.8907,20.6532 5.8839,20.6870 5.8792,20.7212 5.8767,20.7557 5.8762,20.7906 5.8780,20.8258 5.8818,20.8613 5.8878,20.8972 5.8960,20.9334 5.9063,20.9699 5.9193,21.0078 5.9345,21.0437 5.9518,21.0779 5.9713,21.1102 5.9929,21.1406 6.0166,21.1693 6.0424,21.1960 6.0700,21.2206 6.0987,21.2428 6.1287,21.2626 6.1599,21.2800 6.1924,21.2949 6.2261,21.3074 6.2610,21.3175 6.2967,21.3249 6.3327,21.3293 6.3691,21.3308 6.4058,21.3294 6.4428,21.3250 6.4803,21.3177Z M7.8556,21.1924 7.4766,19.5571 7.7496,19.4523 8.1287,21.0876Z M7.4161,19.2943 7.3309,18.9302 7.6040,18.8253 7.6892,19.1894Z M9.4295,20.5796 9.3919,20.5959 9.3543,20.6103 9.3168,20.6227 9.2793,20.6332 9.2419,20.6417 9.2044,20.6483 9.1670,20.6530 9.1297,20.6557 9.0924,20.6565 9.0551,20.6553 9.0179,20.6522 8.9809,20.6473 8.9447,20.6406 8.9090,20.6323 8.8740,20.6223 8.8396,20.6105 8.8058,20.5971 8.7727,20.5819 8.7401,20.5651 8.7082,20.5465 8.6770,20.5262 8.6464,20.5042 8.6190,20.4827 8.5927,20.4600 8.5673,20.4361 8.5429,20.4109 8.5195,20.3846 8.4970,20.3571 8.4755,20.3284 8.4549,20.2985 8.4353,20.2673 8.4167,20.2350 8.3991,20.2015 8.3824,20.1668 8.3669,20.1314 8.3528,20.0959 8.3403,20.0603 8.3291,20.0246 8.3195,19.9888 8.3113,19.9529 8.3045,19.9169 8.2992,19.8808 8.2954,19.8446 8.2930,19.8083 8.2920,19.7681 8.2926,19.7283 8.2948,19.6889 8.2987,19.6499 8.3042,19.6113 8.3113,19.5731 8.3200,19.5352 8.3304,19.4978 8.3424,19.4608 8.3560,19.4244 8.3710,19.3888 8.3876,19.3541 8.4056,19.3203 8.4252,19.2873 8.4462,19.2552 8.4687,19.2239 8.4927,19.1935 8.5183,19.1639 8.5424,19.1383 8.5676,19.1136 8.5937,19.0901 8.6209,19.0676 8.6492,19.0462 8.6784,19.0259 8.7086,19.0066 8.7399,18.9884 8.7722,18.9713 8.8055,18.9553 8.8437,18.9387 8.8818,18.9242 8.9199,18.9116 8.9580,18.9010 8.9959,18.8924 9.0339,18.8858 9.0717,18.8812 9.1095,18.8786 9.1471,18.8778 9.1840,18.8788 9.2205,18.8816 9.2564,18.8861 9.2918,18.8924 9.3267,18.9004 9.3610,18.9102 9.3948,18.9218 9.4277,18.9350 9.4594,18.9500 9.4900,18.9666 9.5195,18.9849 9.5477,19.0049 9.5748,19.0265 9.6008,19.0499 9.6255,19.0749 9.4356,19.2902 9.4068,19.2634 9.3764,19.2396 9.3444,19.2189 9.3108,19.2013 9.2756,19.1867 9.2389,19.1752 9.2006,19.1667 9.1663,19.1620 9.1319,19.1602 9.0973,19.1611 9.0626,19.1648 9.0277,19.1713 8.9926,19.1805 8.9574,19.1926 8.9221,19.2075 8.8884,19.2242 8.8565,19.2425 8.8264,19.2625 8.7981,19.2841 8.7717,19.3073 8.7470,19.3322 8.7242,19.3587 8.7031,19.3868 8.6839,19.4166 8.6665,19.4475 8.6510,19.4791 8.6374,19.5114 8.6256,19.5443 8.6158,19.5780 8.6078,19.6123 8.6017,19.6473 8.5975,19.6829 8.5952,19.7193 8.5948,19.7558 8.5963,19.7921 8.5997,19.8282 8.6050,19.8640 8.6122,19.8996 8.6213,19.9349 8.6324,19.9699 8.6453,20.0048 8.6602,20.0393 8.6771,20.0738 8.6953,20.1065 8.7148,20.1374 8.7357,20.1664 8.7578,20.1937 8.7813,20.2191 8.8061,20.2426 8.8322,20.2644 8.8633,20.2868 8.8953,20.3065 8.9282,20.3234 8.9621,20.3376 8.9969,20.3490 9.0326,20.3577 9.0693,20.3636 9.1064,20.3667 9.1434,20.3666 9.1804,20.3635 9.2173,20.3574 9.2542,20.3482 9.2909,20.3359 9.3277,20.3206 9.3633,20.3029 9.3968,20.2832 9.4283,20.2616 9.4577,20.2381 9.4851,20.2127 9.5103,20.1854 9.5336,20.1563 9.5547,20.1252 9.5736,20.0927 9.5902,20.0596 9.6045,20.0256 9.6165,19.9910 9.6261,19.9556 9.6333,19.9194 9.6383,19.8825 9.6409,19.8448 9.9262,19.8651 9.9244,19.9010 9.9209,19.9368 9.9156,19.9723 9.9086,20.0075 9.8997,20.0426 9.8891,20.0775 9.8767,20.1121 9.8626,20.1465 9.8467,20.1804 9.8293,20.2136 9.8104,20.2460 9.7898,20.2776 9.7677,20.3085 9.7441,20.3387 9.7189,20.3681 9.6921,20.3967 9.6670,20.4213 9.6410,20.4448 9.6139,20.4673 9.5857,20.4887 9.5566,20.5090 9.5263,20.5282 9.4951,20.5464 9.4628,20.5635Z M11.0291,19.7695 10.9933,19.7886 10.9576,19.8052 10.9220,19.8193 10.8865,19.8309 10.8510,19.8400 10.8157,19.8467 10.7803,19.8508 10.7451,19.8524 10.7099,19.8516 10.6751,19.8483 10.6410,19.8425 10.6076,19.8344 10.5749,19.8239 10.5428,19.8109 10.5115,19.7956 10.4808,19.7778 10.4509,19.7576 10.4216,19.7350 10.3961,19.7127 10.3715,19.6885 10.3479,19.6625 10.3253,19.6347 10.3037,19.6050 10.2830,19.5735 10.2634,19.5401 10.2447,19.5049 10.2270,19.4679 10.2102,19.4290 9.8390,18.4894 10.0913,18.3459 10.4659,19.2978 10.4826,19.3346 10.5010,19.3686 10.5211,19.3996 10.5429,19.4276 10.5664,19.4527 10.5915,19.4749 10.6234,19.4975 10.6567,19.5155 10.6912,19.5288 10.7272,19.5376 10.7645,19.5417 10.7963,19.5415 10.8286,19.5378 10.8612,19.5306 10.8942,19.5200 10.9276,19.5059 10.9614,19.4883 10.9950,19.4674 11.0261,19.4446 11.0547,19.4197 11.0807,19.3928 11.1042,19.3639 11.1252,19.3329 11.1436,19.3003 11.1592,19.2664 11.1721,19.2312 11.1823,19.1947 11.1898,19.1568 11.1946,19.1177 11.1962,19.0834 11.1954,19.0488 11.1920,19.0138 11.1862,18.9786 11.1778,18.9430 11.1670,18.9072 11.1537,18.8710 10.7889,17.9490 11.0385,17.8070 11.6601,19.3678 11.4159,19.5067 11.3427,19.3282 11.3366,19.3649 11.3280,19.4008 11.3171,19.4360 11.3037,19.4704 11.2878,19.5039 11.2696,19.5367 11.2498,19.5681 11.2284,19.5981 11.2051,19.6267 11.1801,19.6539 11.1534,19.6798 11.1250,19.7043 11.0947,19.7274 11.0628,19.7491Z M12.6789,18.7533 12.6449,18.7753 12.6106,18.7954 12.5759,18.8136 12.5409,18.8298 12.5056,18.8441 12.4699,18.8565 12.4339,18.8670 12.3976,18.8755 12.3612,18.8821 12.3251,18.8866 12.2892,18.8892 12.2536,18.8897 12.2183,18.8883 12.1832,18.8849 12.1483,18.8794 12.1138,18.8720 12.0798,18.8626 12.0466,18.8514 12.0144,18.8383 11.9830,18.8234 11.9524,18.8066 11.9228,18.7880 11.8939,18.7674 11.8660,18.7451 12.0088,18.5323 12.0410,18.5535 12.0737,18.5720 12.1070,18.5877 12.1409,18.6006 12.1753,18.6108 12.2102,18.6182 12.2457,18.6229 12.2817,18.6248 12.3177,18.6239 12.3533,18.6202 12.3884,18.6137 12.4230,18.6044 12.4571,18.5922 12.4907,18.5772 12.5238,18.5594 12.5564,18.5388 12.5893,18.5147 12.6186,18.4893 12.6443,18.4628 12.6665,18.4352 12.6851,18.4063 12.7002,18.3763 12.7117,18.3450 12.7204,18.3085 12.7237,18.2732 12.7219,18.2391 12.7147,18.2061 12.7022,18.1743 12.6845,18.1438 12.6602,18.1144 12.6320,18.0922 12.5999,18.0770 12.5640,18.0689 12.5326,18.0670 12.4990,18.0687 12.4631,18.0741 12.4250,18.0830 12.3847,18.0955 12.1444,18.1759 12.1035,18.1887 12.0636,18.1991 12.0247,18.2069 11.9868,18.2123 11.9499,18.2152 11.9140,18.2156 11.8792,18.2135 11.8454,18.2089 11.8125,18.2018 11.7771,18.1910 11.7435,18.1774 11.7116,18.1609 11.6816,18.1415 11.6534,18.1193 11.6269,18.0942 11.6023,18.0663 11.5795,18.0355 11.5601,18.0047 11.5433,17.9731 11.5292,17.9409 11.5177,17.9080 11.5088,17.8744 11.5026,17.8401 11.4989,17.8051 11.4980,17.7694 11.4995,17.7335 11.5034,17.6977 11.5096,17.6623 11.5182,17.6270 11.5291,17.5919 11.5424,17.5571 11.5580,17.5225 11.5760,17.4881 11.5938,17.4582 11.6133,17.4292 11.6343,17.4013 11.6570,17.3743 11.6812,17.3484 11.7071,17.3235 11.7346,17.2996 11.7637,17.2766 11.7943,17.2547 11.8287,17.2325 11.8632,17.2125 11.8980,17.1946 11.9330,17.1790 11.9682,17.1654 12.0036,17.1541 12.0393,17.1449 12.0751,17.1379 12.1112,17.1330 12.1475,17.1303 12.1840,17.1298 12.2202,17.1314 12.2556,17.1352 12.2902,17.1411 12.3240,17.1492 12.3571,17.1594 12.3893,17.1718 12.4207,17.1863 12.4513,17.2030 12.4811,17.2218 12.5101,17.2428 12.5383,17.2659 12.3924,17.4809 12.3609,17.4582 12.3288,17.4390 12.2962,17.4231 12.2631,17.4106 12.2294,17.4016 12.1952,17.3959 12.1604,17.3936 12.1255,17.3947 12.0910,17.3990 12.0569,17.4065 12.0232,17.4172 11.9898,17.4312 11.9568,17.4484 11.9241,17.4689 11.8933,17.4915 11.8657,17.5153 11.8414,17.5401 11.8203,17.5661 11.8025,17.5932 11.7880,17.6215 11.7767,17.6508 11.7680,17.6852 11.7645,17.7187 11.7662,17.7512 11.7730,17.7827 11.7851,17.8133 11.8023,17.8429 11.8262,17.8724 11.8534,17.8952 11.8837,17.9113 11.9172,17.9206 11.9464,17.9237 11.9780,17.9232 12.0118,17.9193 12.0479,17.9118 12.0863,17.9009 12.3497,17.8189 12.3905,17.8070 12.4304,17.7976 12.4693,17.7905 12.5073,17.7857 12.5442,17.7833 12.5802,17.7833 12.6151,17.7856 12.6491,17.7902 12.6821,17.7972 12.7178,17.8078 12.7517,17.8214 12.7837,17.8378 12.8139,17.8572 12.8423,17.8794 12.8689,17.9045 12.8936,17.9326 12.9166,17.9635 12.9358,17.9940 12.9523,18.0253 12.9661,18.0573 12.9774,18.0900 12.9859,18.1234 12.9918,18.1575 12.9950,18.1924 12.9956,18.2280 12.9937,18.2639 12.9893,18.2997 12.9824,18.3353 12.9731,18.3708 12.9613,18.4061 12.9472,18.4412 12.9305,18.4763 12.9114,18.5112 12.8925,18.5417 12.8719,18.5713 12.8495,18.5999 12.8254,18.6277 12.7995,18.6546 12.7720,18.6806 12.7427,18.7058 12.7117,18.7300Z"/>
  <path id="logo" fill="#000" fill-rule="evenodd" d="M-19.8444,-2.3558 -19.9358,-2.3457 -20.0273,-2.3304 -20.1181,-2.3107 -20.2089,-2.2866 -20.2991,-2.2574 -20.3899,-2.2237 -20.4813,-2.1843 -20.5741,-2.1405 -20.6420,-2.1050 -20.7081,-2.0675 -20.7716,-2.0281 -20.8338,-1.9868 -20.8941,-1.9430 -20.9532,-1.8967 -21.0116,-1.8478 -21.0688,-1.7957 -21.1209,-1.7449 -21.1698,-1.6934 -21.2155,-1.6407 -21.2587,-1.5861 -21.2987,-1.5302 -21.3362,-1.4718 -21.3717,-1.4108 -21.4054,-1.3467 -21.4187,-1.3187 -21.4320,-1.2870 -21.4447,-1.2527 -21.4568,-1.2171 -21.4676,-1.1816 -21.4778,-1.1466 -21.4854,-1.1142 -21.4911,-1.0844 -21.4968,-1.0412 -21.5000,-0.9987 -21.5000,-0.9567 -21.4975,-0.9161 -21.4930,-0.8780 -21.4854,-0.8412 -21.4752,-0.8075 -21.4625,-0.7764 -21.4530,-0.7573 -21.4416,-0.7376 -21.4295,-0.7173 -21.4162,-0.6983 -21.4035,-0.6798 -21.3901,-0.6633 -21.3781,-0.6500 -21.3673,-0.6392 -21.3533,-0.6284 -21.3374,-0.6176 -21.3203,-0.6068 -21.3019,-0.5967 -21.2841,-0.5878 -21.2657,-0.5795 -21.2485,-0.5732 -21.2320,-0.5681 -21.2104,-0.5630 -21.1869,-0.5598 -21.1615,-0.5579 -21.1355,-0.5573 -21.1088,-0.5585 -21.0815,-0.5611 -21.0548,-0.5655 -21.0288,-0.5706 -21.0034,-0.5776 -20.9754,-0.5865 -20.9456,-0.5967 -20.9151,-0.6087 -20.8840,-0.6214 -20.8529,-0.6348 -20.8230,-0.6487 -20.7957,-0.6627 -20.7074,-0.7129 -20.6103,-0.7745 -20.5067,-0.8443 -20.3988,-0.9224 -20.2895,-1.0050 -20.1822,-1.0914 -20.0787,-1.1790 -19.9822,-1.2654 -19.8837,-1.3600 -19.7929,-1.4546 -19.7085,-1.5493 -19.6322,-1.6426 -19.5643,-1.7341 -19.5052,-1.8230 -19.4563,-1.9081 -19.4176,-1.9887 -19.4043,-2.0243 -19.3935,-2.0586 -19.3858,-2.0916 -19.3820,-2.1234 -19.3808,-2.1532 -19.3833,-2.1805 -19.3884,-2.2053 -19.3973,-2.2269 -19.4131,-2.2517 -19.4354,-2.2739 -19.4627,-2.2942 -19.4951,-2.3120 -19.5325,-2.3272 -19.5745,-2.3399 -19.6208,-2.3495 -19.6710,-2.3564 -19.6957,-2.3584 -19.7167,-2.3603 -19.7358,-2.3615 -19.7535,-2.3615 -19.7726,-2.3615 -19.7929,-2.3603 -19.8164,-2.3584Z M-17.5822,-2.2250 -17.6095,-2.2224 -17.6432,-2.2186 -17.6813,-2.2129 -17.7219,-2.2066 -17.7632,-2.2002 -17.8039,-2.1932 -17.8407,-2.1856 -17.8724,-2.1793 -17.9696,-2.1551 -18.0636,-2.1291 -18.1557,-2.0992 -18.2484,-2.0656 -18.3424,-2.0275 -18.4389,-1.9849 -18.5399,-1.9360 -18.6460,-1.8820 -18.6892,-1.8592 -18.7292,-1.8370 -18.7673,-1.8160 -18.8054,-1.7938 -18.8441,-1.7703 -18.8848,-1.7455 -18.9286,-1.7182 -18.9762,-1.6871 -19.0905,-1.6109 -19.2112,-1.5258 -19.3376,-1.4318 -19.4703,-1.3289 -19.6100,-1.2165 -19.7561,-1.0952 -19.9091,-0.9637 -20.0692,-0.8227 -20.2635,-0.6462 -20.4375,-0.4798 -20.5937,-0.3210 -20.7341,-0.1680 -20.8592,-0.0187 -20.9729,0.1292 -21.0751,0.2778 -21.1698,0.4290 -21.1907,0.4665 -21.2129,0.5077 -21.2345,0.5516 -21.2561,0.5967 -21.2771,0.6411 -21.2955,0.6849 -21.3120,0.7249 -21.3260,0.7618 -21.3444,0.8189 -21.3603,0.8761 -21.3736,0.9326 -21.3838,0.9891 -21.3914,1.0457 -21.3958,1.1015 -21.3978,1.1574 -21.3971,1.2127 -21.3939,1.2667 -21.3889,1.3181 -21.3812,1.3683 -21.3711,1.4165 -21.3590,1.4635 -21.3438,1.5093 -21.3266,1.5537 -21.3069,1.5982 -21.3000,1.6134 -21.2917,1.6293 -21.2828,1.6458 -21.2745,1.6617 -21.2657,1.6776 -21.2574,1.6922 -21.2498,1.7049 -21.2434,1.7157 -21.2174,1.7538 -21.1888,1.7919 -21.1577,1.8300 -21.1247,1.8681 -21.0904,1.9043 -21.0554,1.9386 -21.0205,1.9710 -20.9862,2.0002 -20.9627,2.0173 -20.9361,2.0370 -20.9068,2.0567 -20.8757,2.0770 -20.8452,2.0967 -20.8148,2.1145 -20.7868,2.1310 -20.7627,2.1437 -20.6846,2.1799 -20.6014,2.2129 -20.5137,2.2428 -20.4216,2.2688 -20.3245,2.2917 -20.2229,2.3107 -20.1162,2.3272 -20.0050,2.3393 -19.9326,2.3457 -19.8571,2.3507 -19.7739,2.3545 -19.6799,2.3577 -19.5713,2.3596 -19.4449,2.3609 -19.2963,2.3615 -19.1223,2.3615 -18.8016,2.3603 -18.5361,2.3571 -18.3170,2.3526 -18.1347,2.3457 -17.9817,2.3355 -17.8477,2.3228 -17.7238,2.3063 -17.6019,2.2853 -17.5390,2.2726 -17.4793,2.2593 -17.4234,2.2447 -17.3720,2.2294 -17.3250,2.2136 -17.2837,2.1970 -17.2482,2.1812 -17.2190,2.1647 -17.1974,2.1494 -17.1789,2.1335 -17.1624,2.1164 -17.1491,2.0986 -17.1389,2.0802 -17.1313,2.0611 -17.1269,2.0421 -17.1250,2.0218 -17.1262,2.0097 -17.1300,1.9957 -17.1364,1.9805 -17.1447,1.9646 -17.1548,1.9487 -17.1669,1.9329 -17.1802,1.9176 -17.1948,1.9030 -17.2170,1.8840 -17.2520,1.8554 -17.2990,1.8192 -17.3574,1.7747 -17.4254,1.7239 -17.5022,1.6668 -17.5873,1.6039 -17.6800,1.5366 -17.8813,1.3905 -18.0407,1.2730 -18.1659,1.1803 -18.2624,1.1060 -18.3380,1.0457 -18.3983,0.9936 -18.4497,0.9447 -18.4999,0.8945 -18.5266,0.8666 -18.5501,0.8393 -18.5710,0.8132 -18.5901,0.7878 -18.6066,0.7624 -18.6212,0.7376 -18.6339,0.7122 -18.6447,0.6862 -18.6504,0.6722 -18.6549,0.6589 -18.6587,0.6475 -18.6612,0.6360 -18.6625,0.6240 -18.6638,0.6106 -18.6644,0.5954 -18.6644,0.5776 -18.6644,0.5598 -18.6644,0.5446 -18.6631,0.5312 -18.6618,0.5192 -18.6593,0.5077 -18.6561,0.4957 -18.6517,0.4823 -18.6466,0.4677 -18.6422,0.4569 -18.6371,0.4442 -18.6314,0.4315 -18.6244,0.4182 -18.6174,0.4049 -18.6104,0.3922 -18.6034,0.3801 -18.5964,0.3693 -18.5672,0.3280 -18.5310,0.2861 -18.4885,0.2423 -18.4402,0.1985 -18.3856,0.1534 -18.3265,0.1083 -18.2617,0.0626 -18.1919,0.0175 -18.1373,-0.0156 -18.0795,-0.0499 -18.0166,-0.0861 -17.9468,-0.1248 -17.8680,-0.1673 -17.7797,-0.2137 -17.6800,-0.2658 -17.5663,-0.3242 -17.4107,-0.4042 -17.2793,-0.4715 -17.1701,-0.5274 -17.0811,-0.5732 -17.0100,-0.6106 -16.9548,-0.6392 -16.9135,-0.6614 -16.8836,-0.6779 -16.8017,-0.7249 -16.7312,-0.7669 -16.6696,-0.8056 -16.6163,-0.8412 -16.5693,-0.8755 -16.5267,-0.9097 -16.4867,-0.9447 -16.4480,-0.9815 -16.4251,-1.0044 -16.4067,-1.0234 -16.3915,-1.0399 -16.3794,-1.0545 -16.3692,-1.0685 -16.3597,-1.0825 -16.3514,-1.0984 -16.3419,-1.1161 -16.3362,-1.1282 -16.3305,-1.1415 -16.3248,-1.1549 -16.3197,-1.1682 -16.3146,-1.1809 -16.3108,-1.1924 -16.3076,-1.2025 -16.3057,-1.2114 -16.3013,-1.2406 -16.3000,-1.2755 -16.3013,-1.3137 -16.3044,-1.3543 -16.3102,-1.3956 -16.3178,-1.4362 -16.3273,-1.4743 -16.3387,-1.5086 -16.3470,-1.5283 -16.3578,-1.5524 -16.3711,-1.5785 -16.3851,-1.6064 -16.4003,-1.6344 -16.4156,-1.6604 -16.4296,-1.6845 -16.4423,-1.7036 -16.4766,-1.7512 -16.5115,-1.7963 -16.5470,-1.8382 -16.5839,-1.8789 -16.6220,-1.9170 -16.6620,-1.9532 -16.7033,-1.9881 -16.7471,-2.0218 -16.7604,-2.0313 -16.7757,-2.0415 -16.7928,-2.0522 -16.8106,-2.0637 -16.8297,-2.0751 -16.8481,-2.0859 -16.8665,-2.0954 -16.8836,-2.1050 -16.9490,-2.1354 -17.0138,-2.1621 -17.0799,-2.1837 -17.1472,-2.2009 -17.2164,-2.2136 -17.2888,-2.2224 -17.3644,-2.2275 -17.4444,-2.2282 -17.4666,-2.2282 -17.4889,-2.2275 -17.5105,-2.2275 -17.5301,-2.2269 -17.5473,-2.2263 -17.5625,-2.2263 -17.5740,-2.2256Z M-17.3961,-1.7627 -17.3815,-1.7582 -17.3669,-1.7531 -17.3536,-1.7468 -17.3403,-1.7398 -17.3282,-1.7322 -17.3161,-1.7239 -17.3053,-1.7144 -17.2952,-1.7049 -17.2914,-1.7004 -17.2869,-1.6947 -17.2825,-1.6877 -17.2780,-1.6807 -17.2736,-1.6725 -17.2685,-1.6649 -17.2647,-1.6566 -17.2609,-1.6483 -17.2558,-1.6369 -17.2520,-1.6267 -17.2488,-1.6172 -17.2463,-1.6077 -17.2450,-1.5975 -17.2437,-1.5861 -17.2437,-1.5734 -17.2437,-1.5582 -17.2437,-1.5423 -17.2444,-1.5289 -17.2456,-1.5181 -17.2469,-1.5074 -17.2501,-1.4978 -17.2532,-1.4877 -17.2583,-1.4769 -17.2640,-1.4648 -17.2723,-1.4489 -17.2818,-1.4343 -17.2926,-1.4203 -17.3047,-1.4070 -17.3174,-1.3949 -17.3320,-1.3835 -17.3466,-1.3734 -17.3631,-1.3638 -17.3707,-1.3600 -17.3784,-1.3568 -17.3866,-1.3543 -17.3949,-1.3524 -17.4057,-1.3511 -17.4171,-1.3505 -17.4317,-1.3499 -17.4489,-1.3499 -17.4660,-1.3499 -17.4806,-1.3505 -17.4927,-1.3511 -17.5035,-1.3524 -17.5124,-1.3543 -17.5206,-1.3568 -17.5282,-1.3606 -17.5365,-1.3645 -17.5524,-1.3740 -17.5676,-1.3841 -17.5822,-1.3962 -17.5956,-1.4089 -17.6083,-1.4229 -17.6197,-1.4369 -17.6292,-1.4515 -17.6375,-1.4667 -17.6426,-1.4775 -17.6470,-1.4870 -17.6502,-1.4966 -17.6521,-1.5067 -17.6540,-1.5169 -17.6546,-1.5296 -17.6553,-1.5448 -17.6553,-1.5626 -17.6553,-1.5798 -17.6546,-1.5944 -17.6540,-1.6064 -17.6527,-1.6166 -17.6508,-1.6255 -17.6483,-1.6337 -17.6451,-1.6420 -17.6406,-1.6502 -17.6330,-1.6636 -17.6241,-1.6763 -17.6140,-1.6896 -17.6038,-1.7017 -17.5924,-1.7138 -17.5809,-1.7245 -17.5702,-1.7334 -17.5587,-1.7411 -17.5486,-1.7468 -17.5359,-1.7525 -17.5232,-1.7576 -17.5092,-1.7620 -17.4946,-1.7658 -17.4806,-1.7690 -17.4673,-1.7709 -17.4552,-1.7715 -17.4495,-1.7715 -17.4431,-1.7709 -17.4362,-1.7703 -17.4285,-1.7690 -17.4203,-1.7677 -17.4120,-1.7665 -17.4038,-1.7646Z M17.9556,-2.3558 17.8642,-2.3457 17.7727,-2.3304 17.6819,-2.3107 17.5911,-2.2866 17.5009,-2.2574 17.4101,-2.2237 17.3187,-2.1843 17.2259,-2.1405 17.1580,-2.1050 17.0919,-2.0675 17.0284,-2.0281 16.9662,-1.9868 16.9059,-1.9430 16.8468,-1.8967 16.7884,-1.8478 16.7312,-1.7957 16.6791,-1.7449 16.6302,-1.6934 16.5845,-1.6407 16.5413,-1.5861 16.5013,-1.5302 16.4638,-1.4718 16.4283,-1.4108 16.3946,-1.3467 16.3813,-1.3187 16.3680,-1.2870 16.3553,-1.2527 16.3432,-1.2171 16.3324,-1.1816 16.3222,-1.1466 16.3146,-1.1142 16.3089,-1.0844 16.3032,-1.0412 16.3000,-0.9987 16.3000,-0.9567 16.3025,-0.9161 16.3070,-0.8780 16.3146,-0.8412 16.3248,-0.8075 16.3375,-0.7764 16.3470,-0.7573 16.3584,-0.7376 16.3705,-0.7173 16.3838,-0.6983 16.3965,-0.6798 16.4099,-0.6633 16.4219,-0.6500 16.4327,-0.6392 16.4467,-0.6284 16.4626,-0.6176 16.4797,-0.6068 16.4981,-0.5967 16.5159,-0.5878 16.5343,-0.5795 16.5515,-0.5732 16.5680,-0.5681 16.5896,-0.5630 16.6131,-0.5598 16.6385,-0.5579 16.6645,-0.5573 16.6912,-0.5585 16.7185,-0.5611 16.7452,-0.5655 16.7712,-0.5706 16.7966,-0.5776 16.8246,-0.5865 16.8544,-0.5967 16.8849,-0.6087 16.9160,-0.6214 16.9471,-0.6348 16.9770,-0.6487 17.0043,-0.6627 17.0926,-0.7129 17.1897,-0.7745 17.2933,-0.8443 17.4012,-0.9224 17.5105,-1.0050 17.6178,-1.0914 17.7213,-1.1790 17.8178,-1.2654 17.9163,-1.3600 18.0071,-1.4546 18.0915,-1.5493 18.1678,-1.6426 18.2357,-1.7341 18.2948,-1.8230 18.3437,-1.9081 18.3824,-1.9887 18.3957,-2.0243 18.4065,-2.0586 18.4142,-2.0916 18.4180,-2.1234 18.4192,-2.1532 18.4167,-2.1805 18.4116,-2.2053 18.4027,-2.2269 18.3869,-2.2517 18.3646,-2.2739 18.3373,-2.2942 18.3049,-2.3120 18.2675,-2.3272 18.2255,-2.3399 18.1792,-2.3495 18.1290,-2.3564 18.1043,-2.3584 18.0833,-2.3603 18.0642,-2.3615 18.0465,-2.3615 18.0274,-2.3615 18.0071,-2.3603 17.9836,-2.3584Z M20.2178,-2.2250 20.1905,-2.2224 20.1568,-2.2186 20.1187,-2.2129 20.0781,-2.2066 20.0368,-2.2002 19.9961,-2.1932 19.9593,-2.1856 19.9276,-2.1793 19.8304,-2.1551 19.7364,-2.1291 19.6443,-2.0992 19.5516,-2.0656 19.4576,-2.0275 19.3611,-1.9849 19.2601,-1.9360 19.1540,-1.8820 19.1108,-1.8592 19.0708,-1.8370 19.0327,-1.8160 18.9946,-1.7938 18.9559,-1.7703 18.9152,-1.7455 18.8714,-1.7182 18.8238,-1.6871 18.7095,-1.6109 18.5888,-1.5258 18.4624,-1.4318 18.3297,-1.3289 18.1900,-1.2165 18.0439,-1.0952 17.8909,-0.9637 17.7308,-0.8227 17.5365,-0.6462 17.3625,-0.4798 17.2063,-0.3210 17.0659,-0.1680 16.9408,-0.0187 16.8271,0.1292 16.7249,0.2778 16.6302,0.4290 16.6093,0.4665 16.5871,0.5077 16.5655,0.5516 16.5439,0.5967 16.5229,0.6411 16.5045,0.6849 16.4880,0.7249 16.4740,0.7618 16.4556,0.8189 16.4397,0.8761 16.4264,0.9326 16.4162,0.9891 16.4086,1.0457 16.4042,1.1015 16.4022,1.1574 16.4029,1.2127 16.4061,1.2667 16.4111,1.3181 16.4188,1.3683 16.4289,1.4165 16.4410,1.4635 16.4562,1.5093 16.4734,1.5537 16.4931,1.5982 16.5000,1.6134 16.5083,1.6293 16.5172,1.6458 16.5255,1.6617 16.5343,1.6776 16.5426,1.6922 16.5502,1.7049 16.5566,1.7157 16.5826,1.7538 16.6112,1.7919 16.6423,1.8300 16.6753,1.8681 16.7096,1.9043 16.7446,1.9386 16.7795,1.9710 16.8138,2.0002 16.8373,2.0173 16.8639,2.0370 16.8932,2.0567 16.9243,2.0770 16.9548,2.0967 16.9852,2.1145 17.0132,2.1310 17.0373,2.1437 17.1154,2.1799 17.1986,2.2129 17.2863,2.2428 17.3784,2.2688 17.4755,2.2917 17.5771,2.3107 17.6838,2.3272 17.7950,2.3393 17.8674,2.3457 17.9429,2.3507 18.0261,2.3545 18.1201,2.3577 18.2287,2.3596 18.3551,2.3609 18.5037,2.3615 18.6777,2.3615 18.9984,2.3603 19.2639,2.3571 19.4830,2.3526 19.6653,2.3457 19.8183,2.3355 19.9523,2.3228 20.0762,2.3063 20.1981,2.2853 20.2610,2.2726 20.3207,2.2593 20.3766,2.2447 20.4280,2.2294 20.4750,2.2136 20.5163,2.1970 20.5518,2.1812 20.5810,2.1647 20.6026,2.1494 20.6211,2.1335 20.6376,2.1164 20.6509,2.0986 20.6611,2.0802 20.6687,2.0611 20.6731,2.0421 20.6750,2.0218 20.6738,2.0097 20.6700,1.9957 20.6636,1.9805 20.6553,1.9646 20.6452,1.9487 20.6331,1.9329 20.6198,1.9176 20.6052,1.9030 20.5830,1.8840 20.5480,1.8554 20.5010,1.8192 20.4426,1.7747 20.3746,1.7239 20.2978,1.6668 20.2127,1.6039 20.1200,1.5366 19.9187,1.3905 19.7593,1.2730 19.6341,1.1803 19.5376,1.1060 19.4620,1.0457 19.4017,0.9936 19.3503,0.9447 19.3001,0.8945 19.2734,0.8666 19.2499,0.8393 19.2290,0.8132 19.2099,0.7878 19.1934,0.7624 19.1788,0.7376 19.1661,0.7122 19.1553,0.6862 19.1496,0.6722 19.1451,0.6589 19.1413,0.6475 19.1388,0.6360 19.1375,0.6240 19.1362,0.6106 19.1356,0.5954 19.1356,0.5776 19.1356,0.5598 19.1356,0.5446 19.1369,0.5312 19.1382,0.5192 19.1407,0.5077 19.1439,0.4957 19.1483,0.4823 19.1534,0.4677 19.1578,0.4569 19.1629,0.4442 19.1686,0.4315 19.1756,0.4182 19.1826,0.4049 19.1896,0.3922 19.1966,0.3801 19.2036,0.3693 19.2328,0.3280 19.2690,0.2861 19.3115,0.2423 19.3598,0.1985 19.4144,0.1534 19.4735,0.1083 19.5383,0.0626 19.6081,0.0175 19.6627,-0.0156 19.7205,-0.0499 19.7834,-0.0861 19.8532,-0.1248 19.9320,-0.1673 20.0203,-0.2137 20.1200,-0.2658 20.2337,-0.3242 20.3893,-0.4042 20.5207,-0.4715 20.6299,-0.5274 20.7189,-0.5732 20.7900,-0.6106 20.8452,-0.6392 20.8865,-0.6614 20.9164,-0.6779 20.9983,-0.7249 21.0688,-0.7669 21.1304,-0.8056 21.1837,-0.8412 21.2307,-0.8755 21.2733,-0.9097 21.3133,-0.9447 21.3520,-0.9815 21.3749,-1.0044 21.3933,-1.0234 21.4085,-1.0399 21.4206,-1.0545 21.4308,-1.0685 21.4403,-1.0825 21.4486,-1.0984 21.4581,-1.1161 21.4638,-1.1282 21.4695,-1.1415 21.4752,-1.1549 21.4803,-1.1682 21.4854,-1.1809 21.4892,-1.1924 21.4924,-1.2025 21.4943,-1.2114 21.4987,-1.2406 21.5000,-1.2755 21.4987,-1.3137 21.4956,-1.3543 21.4898,-1.3956 21.4822,-1.4362 21.4727,-1.4743 21.4613,-1.5086 21.4530,-1.5283 21.4422,-1.5524 21.4289,-1.5785 21.4149,-1.6064 21.3997,-1.6344 21.3844,-1.6604 21.3704,-1.6845 21.3577,-1.7036 21.3234,-1.7512 21.2885,-1.7963 21.2530,-1.8382 21.2161,-1.8789 21.1780,-1.9170 21.1380,-1.9532 21.0967,-1.9881 21.0529,-2.0218 21.0396,-2.0313 21.0243,-2.0415 21.0072,-2.0522 20.9894,-2.0637 20.9703,-2.0751 20.9519,-2.0859 20.9335,-2.0954 20.9164,-2.1050 20.8510,-2.1354 20.7862,-2.1621 20.7201,-2.1837 20.6528,-2.2009 20.5836,-2.2136 20.5112,-2.2224 20.4356,-2.2275 20.3556,-2.2282 20.3334,-2.2282 20.3111,-2.2275 20.2895,-2.2275 20.2699,-2.2269 20.2527,-2.2263 20.2375,-2.2263 20.2260,-2.2256Z M20.4039,-1.7627 20.4185,-1.7582 20.4331,-1.7531 20.4464,-1.7468 20.4597,-1.7398 20.4718,-1.7322 20.4839,-1.7239 20.4947,-1.7144 20.5048,-1.7049 20.5086,-1.7004 20.5131,-1.6947 20.5175,-1.6877 20.5220,-1.6807 20.5264,-1.6725 20.5315,-1.6649 20.5353,-1.6566 20.5391,-1.6483 20.5442,-1.6369 20.5480,-1.6267 20.5512,-1.6172 20.5537,-1.6077 20.5550,-1.5975 20.5563,-1.5861 20.5563,-1.5734 20.5563,-1.5582 20.5563,-1.5423 20.5556,-1.5289 20.5544,-1.5181 20.5531,-1.5074 20.5499,-1.4978 20.5468,-1.4877 20.5417,-1.4769 20.5360,-1.4648 20.5277,-1.4489 20.5182,-1.4343 20.5074,-1.4203 20.4953,-1.4070 20.4826,-1.3949 20.4680,-1.3835 20.4534,-1.3734 20.4369,-1.3638 20.4293,-1.3600 20.4216,-1.3568 20.4134,-1.3543 20.4051,-1.3524 20.3943,-1.3511 20.3829,-1.3505 20.3683,-1.3499 20.3511,-1.3499 20.3340,-1.3499 20.3194,-1.3505 20.3073,-1.3511 20.2965,-1.3524 20.2876,-1.3543 20.2794,-1.3568 20.2718,-1.3606 20.2635,-1.3645 20.2476,-1.3740 20.2324,-1.3841 20.2178,-1.3962 20.2044,-1.4089 20.1917,-1.4229 20.1803,-1.4369 20.1708,-1.4515 20.1625,-1.4667 20.1574,-1.4775 20.1530,-1.4870 20.1498,-1.4966 20.1479,-1.5067 20.1460,-1.5169 20.1454,-1.5296 20.1447,-1.5448 20.1447,-1.5626 20.1447,-1.5798 20.1454,-1.5944 20.1460,-1.6064 20.1473,-1.6166 20.1492,-1.6255 20.1517,-1.6337 20.1549,-1.6420 20.1594,-1.6502 20.1670,-1.6636 20.1759,-1.6763 20.1860,-1.6896 20.1962,-1.7017 20.2076,-1.7138 20.2191,-1.7245 20.2298,-1.7334 20.2413,-1.7411 20.2514,-1.7468 20.2641,-1.7525 20.2768,-1.7576 20.2908,-1.7620 20.3054,-1.7658 20.3194,-1.7690 20.3327,-1.7709 20.3448,-1.7715 20.3505,-1.7715 20.3569,-1.7709 20.3638,-1.7703 20.3715,-1.7690 20.3797,-1.7677 20.3880,-1.7665 20.3962,-1.7646Z"/>
</svg>
